<?xml version="1.0" encoding="UTF-8" standalone="no"?>
<!-- Created using Krita: http://krita.org -->

<svg
   xmlns:dc="http://purl.org/dc/elements/1.1/"
   xmlns:cc="http://creativecommons.org/ns#"
   xmlns:rdf="http://www.w3.org/1999/02/22-rdf-syntax-ns#"
   xmlns:svg="http://www.w3.org/2000/svg"
   xmlns="http://www.w3.org/2000/svg"
   xmlns:sodipodi="http://sodipodi.sourceforge.net/DTD/sodipodi-0.dtd"
   xmlns:inkscape="http://www.inkscape.org/namespaces/inkscape"
   width="249.24001pt"
   height="68.120003pt"
   viewBox="0 0 33.235355 9.0835771"
   version="1.1"
   id="svg262"
   sodipodi:docname="new_logo4.svg"
   inkscape:version="0.92.4 (5da689c313, 2019-01-14)">
  <metadata
     id="metadata266">
    <rdf:RDF>
      <cc:Work
         rdf:about="">
        <dc:format>image/svg+xml</dc:format>
        <dc:type
           rdf:resource="http://purl.org/dc/dcmitype/StillImage" />
        <dc:title></dc:title>
      </cc:Work>
    </rdf:RDF>
  </metadata>
  <sodipodi:namedview
     pagecolor="#ffffff"
     bordercolor="#666666"
     borderopacity="1"
     objecttolerance="10"
     gridtolerance="10"
     guidetolerance="10"
     inkscape:pageopacity="0"
     inkscape:pageshadow="2"
     inkscape:window-width="1920"
     inkscape:window-height="1017"
     id="namedview264"
     showgrid="false"
     inkscape:zoom="2.8399143"
     inkscape:cx="113.34041"
     inkscape:cy="67.412219"
     inkscape:window-x="-8"
     inkscape:window-y="-8"
     inkscape:window-maximized="1"
     inkscape:current-layer="svg262"
     scale-x="0.10001" />
  <defs
     id="defs47">
    <linearGradient
       id="gradient0"
       gradientUnits="userSpaceOnUse"
       x1="17.459167"
       y1="34.918331"
       x2="17.459167"
       y2="0"
       spreadMethod="pad"
       gradientTransform="scale(1.1999427,0.83337311)">
      <stop
         stop-color="#d9cdca"
         offset="0"
         stop-opacity="1"
         id="stop2" />
      <stop
         stop-color="#a89f9c"
         offset="1"
         stop-opacity="1"
         id="stop4" />
    </linearGradient>
    <linearGradient
       id="gradient1"
       gradientUnits="userSpaceOnUse"
       x1="10.822546"
       y1="21.61824"
       x2="10.822546"
       y2="-0.026851814"
       spreadMethod="pad"
       gradientTransform="scale(0.74381759,1.3444156)">
      <stop
         stop-color="#d9cdca"
         offset="0"
         stop-opacity="1"
         id="stop7" />
      <stop
         stop-color="#a89f9c"
         offset="1"
         stop-opacity="1"
         id="stop9" />
    </linearGradient>
    <linearGradient
       id="gradient2"
       gradientUnits="userSpaceOnUse"
       x1="15.162124"
       y1="30.324247"
       x2="15.162124"
       y2="0"
       spreadMethod="pad"
       gradientTransform="scale(1.0420704,0.95962809)">
      <stop
         stop-color="#d9cdca"
         offset="0"
         stop-opacity="1"
         id="stop12" />
      <stop
         stop-color="#a89f9c"
         offset="1"
         stop-opacity="1"
         id="stop14" />
    </linearGradient>
    <linearGradient
       id="gradient3"
       gradientUnits="userSpaceOnUse"
       x1="13.753181"
       y1="27.506363"
       x2="13.753181"
       y2="0"
       spreadMethod="pad"
       gradientTransform="scale(0.94523584,1.057937)">
      <stop
         stop-color="#d9cdca"
         offset="0"
         stop-opacity="1"
         id="stop17" />
      <stop
         stop-color="#a89f9c"
         offset="1"
         stop-opacity="1"
         id="stop19" />
    </linearGradient>
    <linearGradient
       id="gradient4"
       gradientUnits="userSpaceOnUse"
       x1="13.509256"
       y1="27.018513"
       x2="13.509256"
       y2="0"
       spreadMethod="pad"
       gradientTransform="scale(0.92529151,1.0807405)">
      <stop
         stop-color="#d9cdca"
         offset="0"
         stop-opacity="1"
         id="stop22" />
      <stop
         stop-color="#a89f9c"
         offset="1"
         stop-opacity="1"
         id="stop24" />
    </linearGradient>
    <linearGradient
       id="gradient5"
       gradientUnits="userSpaceOnUse"
       x1="14.0411"
       y1="28.118292"
       x2="14.0411"
       y2="-0.04448761"
       spreadMethod="pad"
       gradientTransform="scale(0.96502408,1.0362436)">
      <stop
         stop-color="#d9cdca"
         offset="0"
         stop-opacity="1"
         id="stop27" />
      <stop
         stop-color="#a89f9c"
         offset="1"
         stop-opacity="1"
         id="stop29" />
    </linearGradient>
    <linearGradient
       id="gradient6"
       gradientUnits="userSpaceOnUse"
       x1="14.296853"
       y1="28.541904"
       x2="14.296853"
       y2="-0.019095112"
       spreadMethod="pad"
       gradientTransform="scale(0.97923649,1.0212038)">
      <stop
         stop-color="#d9cdca"
         offset="0"
         stop-opacity="1"
         id="stop32" />
      <stop
         stop-color="#a89f9c"
         offset="1"
         stop-opacity="1"
         id="stop34" />
    </linearGradient>
    <linearGradient
       id="gradient7"
       gradientUnits="userSpaceOnUse"
       x1="13.726708"
       y1="27.413603"
       x2="13.726708"
       y2="-0.086888641"
       spreadMethod="pad"
       gradientTransform="scale(0.94341633,1.0599774)">
      <stop
         stop-color="#d9cdca"
         offset="0"
         stop-opacity="1"
         id="stop37" />
      <stop
         stop-color="#a89f9c"
         offset="1"
         stop-opacity="1"
         id="stop39" />
    </linearGradient>
    <linearGradient
       id="gradient8"
       gradientUnits="userSpaceOnUse"
       x1="13.427956"
       y1="26.825193"
       x2="13.427956"
       y2="0.030810721"
       spreadMethod="pad"
       gradientTransform="scale(0.91972301,1.0872839)">
      <stop
         stop-color="#d9cdca"
         offset="0"
         stop-opacity="1"
         id="stop42" />
      <stop
         stop-color="#a89f9c"
         offset="1"
         stop-opacity="1"
         id="stop44" />
    </linearGradient>
  </defs>
  <g
     id="Page-1"
     transform="matrix(0.13222639,0,0,0.13222639,-0.0241814,-0.05019552)"
     style="fill:none">
    <g
       id="minecraft"
       style="fill:none">
      <g
         id="Group"
         style="fill:none">
        <g
           id="Shape"
           style="fill:none">
          <path
             id="shape0"
             transform="translate(0.2,0.6)"
             d="M 10.9,41.8 0,31.8 10.2,0.1 h 12.1 l 5.6,7.6 0.6,-2.2 h 3.3 L 33.2,0.1 45.6,0 46.2,1.1 46.4,0 H 58.9 L 59.4,1.1 59.6,0 h 12.6 l 2.2,5.6 h 0.3 l 0.4,1 1,-6.6 h 12.8 l 0.3,1 0.1,-1 h 26.3 l 1.3,11.9 -0.3,7.1 h -0.5 l 0.4,3.5 -0.3,7.6 h -0.6 l 0.5,3.8 -0.3,7.9 H 89.6 l -0.3,-1 -0.1,1 H 76.5 l -3,-6.2 -0.9,6.2 H 60.1 l -0.6,-1 -0.2,1 H 47 l -0.7,-0.9 -0.2,0.9 H 33.8 l -5.2,-6 H 25.4 L 24.6,35 22.8,41.8 Z"
             inkscape:connector-curvature="0"
             style="fill:#030303;fill-rule:evenodd" />
          <path
             id="shape1"
             transform="translate(141.5,0.5)"
             d="m 14.3,40.9 -0.2,1 H 1 L 0,12 1.1,0 H 27.5 L 27.6,1.1 27.9,0 H 54.1 L 54.3,1.1 54.8,0 H 80.7 L 81,1 81.6,0 h 25.7 l 2.4,7.6 -5.1,6.1 v 0.1 c 0.4,1.2 0.7,2.4 1.1,3.6 0.3,0.9 1.8,5.7 1.8,5.7 l 0.8,2.7 c 0.2,0.8 0.5,1.6 0.7,2.4 l 0.7,2.4 0.3,1.1 -10.2,10.1 H 87.6 L 82.9,22.5 77.5,30 H 73.7 L 74,31.5 66.8,41.7 H 54.3 l -0.2,-1 -0.6,1 H 40.9 l -0.1,-1 -0.5,1 H 27.6 l -0.1,-1.1 -0.4,1.1 H 14.2 Z"
             inkscape:connector-curvature="0"
             style="fill:#030303;fill-rule:evenodd" />
          <path
             id="shape2"
             transform="translate(114.8,0.5)"
             d="M 0,31.4 1.1,0.1 27.7,0 27.9,7.4 27,19.1 H 14.7 l -0.1,4 h 13.8 l 0.2,8.3 -1,10.5 H 1.3 Z"
             inkscape:connector-curvature="0"
             style="fill:#030303;fill-rule:evenodd" />
        </g>
        <g
           id="Shape1"
           transform="translate(2,2)"
           style="fill:none">
          <path
             id="shape3"
             transform="translate(0.5,0.5)"
             d="m 20.4,5.4 -1.6,5.8 h 7.3 l 1.5,-5.7 h 3.3 L 32.3,0 h 9.6 L 35.2,29.1 H 24.8 l 3.1,-12.3 h -3.7 l -1.6,6 h -6.7 l 1.7,-6.1 -3.8,0.1 -3.7,12.3 H 0 l 9.3,-29 h 9.4 l -1.5,5.2 z"
             inkscape:connector-curvature="0"
             style="fill:url(#gradient0);fill-rule:evenodd" />
          <path
             id="shape4"
             transform="translate(39.6,0.6)"
             d="M 16.1,0 10.3,29.1 H 0 L 6.5,0 Z"
             inkscape:connector-curvature="0"
             style="fill:url(#gradient1);fill-rule:evenodd" />
          <path
             id="shape5"
             transform="translate(53.9,0.5)"
             d="m 15.7,19.7 0.9,-6 H 12.9 L 10.4,29.1 H 0 L 5.5,0 h 9.6 l -0.9,5.4 3.3,0.1 -0.8,5.6 h 3.7 L 22,0 h 9.6 L 28.2,29.1 H 17.9 l 1.3,-9.3 z"
             inkscape:connector-curvature="0"
             style="fill:url(#gradient2);fill-rule:evenodd" />
          <path
             id="shape6"
             transform="translate(86.1,0.5)"
             d="m 25,23.1 -0.3,6 H 0 L 3.1,0 H 26 L 25.7,5.1 H 12.3 l -0.5,6 h 13.7 l -0.3,5.6 H 11.3 L 10.9,23 Z"
             inkscape:connector-curvature="0"
             style="fill:url(#gradient3);fill-rule:evenodd" />
          <path
             id="shape7"
             transform="translate(222.2,0.3)"
             d="m 23.2,0 1.6,5.2 h -6.7 v 0.2 c 0.3,1.1 0.6,2.3 0.9,3.4 0.3,1.2 0.7,2.4 1,3.6 0.4,1.2 0.7,2.4 1.1,3.7 0.4,1.2 0.8,2.5 1.1,3.7 0.2,0.8 0.5,1.5 0.7,2.3 0.2,0.8 0.5,1.6 0.7,2.3 0.2,0.8 0.5,1.6 0.7,2.4 0.2,0.8 0.5,1.6 0.7,2.4 H 14.6 L 8,5.2 H 1.3 L 0,0 Z"
             inkscape:connector-curvature="0"
             style="fill:url(#gradient4);fill-rule:evenodd" />
          <path
             id="shape8"
             transform="translate(195.7,0.4)"
             d="m 25.7,11 1.4,5.8 h -14 l 2.6,12.3 H 5.3 L 0,0 h 23 l 1.2,5.1 H 10.7 l 1.2,5.9 z"
             inkscape:connector-curvature="0"
             style="fill:url(#gradient5);fill-rule:evenodd" />
          <path
             id="shape9"
             transform="translate(169,0.4)"
             d="m 12.3,19.7 1.3,9.4 H 3.2 L 0,0 h 23 l 5,29.2 H 17.6 L 16.2,19.8 Z M 19.1,8.3 18.5,4.6 H 14 L 14.4,8 H 10.8 L 10.3,4.6 H 5.9 l 0.5,3.7 h 4 l 0.2,1.4 h -2 l 0.7,5.7 h 2.4 l -0.2,-1.9 h 3.6 l 0.3,2 h 2.5 L 17,9.8 H 15 L 14.8,8.4 Z"
             inkscape:connector-curvature="0"
             style="fill:url(#gradient6);fill-rule:evenodd" />
          <path
             id="shape10"
             transform="translate(142.3,0.5)"
             d="m 21,14 h 3.4 l 1.5,15.1 H 15.5 L 14.6,16.8 10.7,16.7 11.5,29.1 H 1.1 L 0,0 h 23 l 1.1,10.8 h -3.4 z m -6.8,-2.9 -0.4,-6 h -3.7 l 0.4,6 z"
             inkscape:connector-curvature="0"
             style="fill:url(#gradient7);fill-rule:evenodd" />
          <path
             id="shape11"
             transform="translate(114.8,0.4)"
             d="M 10.7,5.2 H 24 L 23.9,0 0.9,0.1 0,29.2 h 24.7 l -0.2,-6 H 10.4 Z"
             inkscape:connector-curvature="0"
             style="fill:url(#gradient8);fill-rule:evenodd" />
        </g>
        <path
           id="Shape2"
           transform="translate(3.2511334,31.6)"
           d="m 0.748867,0 c -0.8000004,0 -1,0.5 -0.4,1 L 7.54887,7.9 c 0.6,0.6 1.8,1 2.60003,1 h 6.2 c 0.8,0 1,-0.5 0.5,-1.1 l -6.3,-6.7 C 9.94887,0.5 8.84887,0 8.04887,0 Z"
           inkscape:connector-curvature="0"
           style="fill:#29282a;fill-rule:evenodd" />
        <path
           id="Shape3"
           transform="translate(27.983243,31.5)"
           d="m 0.816757,0.1 c -0.8,0 -1.1,0.5 -0.5,1.1 L 5.91676,7.8 c 0.5,0.6 1.6,1.1 2.5,1.1 h 6.50004 c 0.8,0 1.1,-0.5 0.6,-1.2 l -4.9,-6.5 C 10.1168,0.5 9.01676,0 8.21676,0 Z"
           inkscape:connector-curvature="0"
           style="fill:#29282a;fill-rule:evenodd" />
        <path
           id="Shape4"
           transform="translate(19.083243,25.2)"
           d="m 0.816757,0.1 c -0.8,0 -1.1,0.5 -0.5,1.1 l 6.200003,7 c 0.5,0.6 1.5,1.1 2.1,1.1 0.6,0 0.7,-0.6 0.2,-1.3 l -0.3,-0.4 c -0.5,-0.7 -0.7,-1.9 -0.5,-2.7 V 4.7 c 0.2,-0.8 0,-2 -0.5,-2.6 l -0.6,-0.9 c -0.5,-0.6 -1.6,-1.2 -2.4,-1.2 z"
           inkscape:connector-curvature="0"
           style="fill:#29282a;fill-rule:evenodd" />
        <path
           id="Shape5"
           transform="translate(42.255556,31.7)"
           d="m 0.844444,0 c -0.7999996,0 -1.1,0.5 -0.6,1.2 L 4.94444,7.7 c 0.5,0.7 1.6,1.2 2.4,1.2 h 6.39996 c 0.8,0 1.1,-0.6 0.7,-1.3 l -4,-6.3 C 10.0444,0.6 8.94444,0 8.14444,0 Z"
           inkscape:connector-curvature="0"
           style="fill:#29282a;fill-rule:evenodd" />
        <path
           id="Shape6"
           transform="translate(56.523595,31.6)"
           d="m 0.876405,0 c -0.8000003,0 -1.1,0.6 -0.7,1.3 L 3.9764,7.6 c 0.4,0.7 1.5,1.3 2.3,1.3 h 6.3 c 0.8,0 1.2,-0.6 0.8,-1.3 l -3,-6.2 c -0.4,-0.7 -1.3,-1.3 -2.2,-1.3 z"
           inkscape:connector-curvature="0"
           style="fill:#29282a;fill-rule:evenodd" />
        <path
           id="Shape7"
           transform="translate(74.300395,31.6)"
           d="m 0.999605,0 c -0.8,0 -1.2,0.6 -0.9000003,1.4 L 2.9996,7.6 c 0.3,0.7 1.3,1.4 2.1,1.4 h 6.5 c 0.8,0 1.3,-0.6 1,-1.4 l -2.3,-6.2 c -0.3,-0.8 -1.2,-1.4 -2,-1.4 z"
           inkscape:connector-curvature="0"
           style="fill:#29282a;fill-rule:evenodd" />
        <path
           id="Shape8"
           transform="translate(88.512,31.5)"
           d="m 1.088,0.1 c -0.8,0 -1.3,0.6 -1,1.4 l 2.1,5.9 c 0.3,0.8 1.2,1.4 2,1.4 h 19.8 c 0.8,0 1.4,-0.7 1.3,-1.5 l -0.8,-5.8 C 24.388,0.7 23.588,0 22.788,0 Z"
           inkscape:connector-curvature="0"
           style="fill:#29282a;fill-rule:evenodd" />
        <path
           id="Shape9"
           transform="translate(116.9891,31.6)"
           d="M 1.3109,0 C 0.510904,0 -0.0890961,0.7 0.0109039,1.5 l 0.6000001,6 C 0.710904,8.3 1.4109,9 2.3109,9 h 19.7 c 0.8,0 1.6,-0.7 1.7,-1.5 l 0.7,-6 c 0.1,-0.8 -0.5,-1.5 -1.3,-1.5 z"
           inkscape:connector-curvature="0"
           style="fill:#29282a;fill-rule:evenodd" />
        <path
           id="Shape10"
           transform="translate(144.5891,31.5)"
           d="m 2.4109,0.1 c -0.8,0 -1.599996,0.7 -1.699996,1.5 L 0.0109039,7.5 C -0.0890961,8.3 0.510904,9 1.3109,9 h 6.4 c 0.8,0 1.7,-0.7 1.8,-1.5 l 1.4,-6 c 0.2,-0.8 -0.3,-1.5 -1.1,-1.5 z"
           inkscape:connector-curvature="0"
           style="fill:#29282a;fill-rule:evenodd" />
        <path
           id="Shape11"
           transform="translate(158.05623,31.6)"
           d="m 3.24377,0 c -0.8,0 -1.7,0.7 -1.8,1.5 L 0.0437746,7.4 C -0.156225,8.2 0.343775,8.9 1.24377,8.9 h 6.4 c 0.8,0 1.7,-0.6 2,-1.4 L 11.7438,1.6 c 0.3,-0.8 -0.2,-1.4 -1,-1.4 z"
           inkscape:connector-curvature="0"
           style="fill:#29282a;fill-rule:evenodd" />
        <path
           id="Shape12"
           transform="translate(171.512,31.4)"
           d="m 4.188,0.1 c -0.8,0 -1.7,0.6 -2,1.4 l -2.1,6.1 c -0.3,0.8 0.2,1.4 1,1.4 h 6.4 c 0.8,0 1.8,-0.6 2.1,-1.4 l 2.9,-6.2 c 0.3,-0.7 0,-1.4 -0.9,-1.4 z"
           inkscape:connector-curvature="0"
           style="fill:#29282a;fill-rule:evenodd" />
        <path
           id="Shape13"
           transform="translate(184.74308,31.4)"
           d="m 5.35692,0.1 c -0.8,0 -1.8,0.6 -2.2,1.3 L 0.156922,7.6 c -0.4,0.7 0,1.3 0.8,1.3 H 7.55692 c 0.8,0 1.8,-0.6 2.2,-1.3 L 13.3569,1.3 c 0.4,-0.7 0.1,-1.3 -0.7,-1.3 z"
           inkscape:connector-curvature="0"
           style="fill:#29282a;fill-rule:evenodd" />
        <path
           id="Shape14"
           transform="translate(198.1236,31.5)"
           d="m 6.3764,0 c -0.8,0 -1.8,0.6 -2.3,1.3 L 0.176405,7.6 c -0.4,0.7 -0.1000003,1.3 0.7,1.3 H 7.3764 c 0.8,0 1.9,-0.5 2.4,-1.2 l 4.6,-6.5 c 0.5,-0.7 0.2,-1.2 -0.6,-1.2 z"
           inkscape:connector-curvature="0"
           style="fill:#29282a;fill-rule:evenodd" />
        <path
           id="Shape15"
           transform="translate(231.8274,31.5)"
           d="m 8.5726,0 c -0.8,0 -1.9,0.5 -2.5,1.1 L 0.272596,7.7 c -0.5,0.6 -0.2999997,1.1 0.5,1.1 H 6.9726 c 0.8,0 2,-0.5 2.6,-1 l 6.9,-6.7 c 0.6,-0.6 0.4,-1 -0.4,-1 z"
           inkscape:connector-curvature="0"
           style="fill:#29282a;fill-rule:evenodd" />
        <g
           id="Shape16"
           transform="translate(5,1)"
           style="opacity:0.43999999;fill:none">
          <g
             id="group0"
             style="fill:none">
            <path
               id="shape12"
               transform="translate(5.0891353,5.9)"
               d="m 0.0108647,0.5 c -0.1,0.2 0.5000003,0.3 1.3999953,0.3 h 6.8 c 0.8,0 1.5,-0.2 1.5,-0.4 0,-0.2 -0.7,-0.4 -1.5,-0.4 h -6.6 C 0.810865,0.1 0.110865,0.3 0.0108647,0.5 Z"
               inkscape:connector-curvature="0"
               style="fill:#030303;fill-rule:evenodd" />
            <path
               id="shape13"
               transform="translate(0.5,19.9)"
               d="M 4,1.4 C 4.3,0.6 3.8,0 3,0 H 1.5 C 0.7,0 0,0.1 0,0.3 0,0.5 0.7,0.6 1.5,0.6 h 0.6 c 0.8,0 1.3,0.6 1,1.4 L 1.6,6.5 c -0.3,0.8 0.2,1.4 1,1.4 h 5 C 8.4,7.9 9.1,7.8 9.1,7.6 9.1,7.4 8.4,7.3 7.6,7.3 H 3.4 C 2.6,7.3 2.1,6.7 2.4,5.9 V 5.8 C 2.7,5 3.5,4.4 4.4,4.4 H 8.2 C 9,4.4 9.7,4.3 9.7,4.1 9.7,3.9 9,3.8 8.2,3.8 H 4.6 C 3.8,3.8 3.3,3.2 3.6,2.4 Z"
               inkscape:connector-curvature="0"
               style="fill:#030303;fill-rule:evenodd" />
            <path
               id="shape14"
               transform="translate(22.5,6.3)"
               d="M 10.4,1.5 C 10.5,0.7 10,0 9.1,0 H 7.3 C 6.5,0 5.7,0.1 5.7,0.3 5.6,0.5 6.3,0.6 7.1,0.6 h 1.3 c 0.8,0 1.4,0.7 1.3,1.5 L 9.5,4 C 9.4,4.8 8.6,5.5 7.8,5.5 H 1.5 C 0.7,5.5 0,5.6 0,5.8 0,6 0.7,6.1 1.5,6.1 h 6.2 1.7 1.7 3 c 0.8,0 1.5,-0.1 1.5,-0.3 0,-0.2 -0.7,-0.3 -1.5,-0.3 H 11.4 C 10.6,5.5 10,4.8 10.1,4 Z"
               inkscape:connector-curvature="0"
               style="fill:#030303;fill-rule:evenodd" />
            <path
               id="shape15"
               transform="translate(40.737354,26.243078)"
               d="m 1.16265,0.956922 c 0.1,-0.8 0.1,-1.2 -0.200004,-0.8 -0.2,0.4 -0.6,1.399998 -0.7,2.199998 l -0.1999998,0.8 c -0.2000002,0.8 0.0999998,2 0.5999998,2.7 l 0.2,0.3 c 0.500004,0.7 1.200004,1.5 1.600004,1.8 0.4,0.3 0.4,0 -0.1,-0.7 l -1,-1.5 c -0.500004,-0.7 -0.700004,-1.9 -0.600004,-2.7 z"
               inkscape:connector-curvature="0"
               style="fill:#030303;fill-rule:evenodd" />
            <path
               id="shape16"
               transform="translate(47.243078,7.1)"
               d="m 4.85692,0.3 c 0,-0.2 -0.7,-0.3 -1.5,-0.3 H 0.956922 c -0.8,0 -1.2,0.1 -0.8,0.3 0.4,0.1 1.399998,0.3 2.199998,0.3 h 1 c 0.8,0 1.5,-0.1 1.5,-0.3 z"
               inkscape:connector-curvature="0"
               style="fill:#030303;fill-rule:evenodd" />
            <path
               id="shape17"
               transform="translate(55.16077,27.823595)"
               d="m 0.83923,0.876405 c 0.2,-0.8000003 0.1,-1.1 -0.1,-0.7 -0.3,0.4 -0.6,1.099995 -0.6999995,1.699995 -0.1,0.5 0,1.5 0.1999995,2.1 0.2,0.6 0.7,1.4 0.9,1.8 0.3,0.3 0.3,0 0,-0.8 l -0.2,-0.8 c -0.3,-0.8 -0.3,-2.1 -0.1,-2.9 z"
               inkscape:connector-curvature="0"
               style="fill:#030303;fill-rule:evenodd" />
            <path
               id="shape18"
               transform="translate(52.1,21.2)"
               d="M 1.5,0 C 0.7,0 0,0.1 0,0.2 0,0.3 0.7,0.5 1.5,0.6 L 8.8,1 c 0.8,0 1.7,0.4 1.9,0.7 0.2,0.4 0.6,0.6 0.7,0.5 0.1,-0.1 0,-0.5 -0.3,-1 C 10.8,0.8 9.9,0.4 9.1,0.3 Z"
               inkscape:connector-curvature="0"
               style="fill:#030303;fill-rule:evenodd" />
            <path
               id="shape19"
               transform="translate(61.400395,6.1)"
               d="M 0.0996047,0.3 C 0.399605,0.5 1.2996,0.7 2.0996,0.7 h 0.3 c 0.8,0 1.5,-0.1 1.5,-0.3 0,-0.2 -0.7,-0.3 -1.5,-0.4 H 0.999605 c -0.8,0 -1.2,0.1 -0.9000003,0.3 z"
               inkscape:connector-curvature="0"
               style="fill:#030303;fill-rule:evenodd" />
            <path
               id="shape20"
               transform="translate(69.2,21.290447)"
               d="m 1.5,0.109553 c -0.8,0 -1.5,0.2 -1.5,0.4 0,0.2 0.7,0.3 1.5,0.3 l 4.1,-0.2 c 0.8,0 1.4,0.599997 1.3,1.399997 l -0.9,5.8 c -0.1,0.8 0,2.1 0.2,2.90005 l 0.1,0.4 c 0.2,0.8 0.7,1.8 1,2.2 0.3,0.4 0.4,0.2 0.1,-0.6 l -0.6,-2 C 6.6,9.90955 6.5,8.60955 6.6,7.80955 l 1,-6.4 C 7.7,0.609553 7.2,-0.0904467 6.3,0.00955332 Z"
               inkscape:connector-curvature="0"
               style="fill:#030303;fill-rule:evenodd" />
            <path
               id="shape21"
               transform="translate(72.1,6.15)"
               d="m 0,0.15 c 0,0.2 0.6,0.4 1.4,0.6 l 7.2,0.8 c 0.8,0.1 1.5,0 1.5,-0.1 0,-0.2 -0.7,-0.4 -1.5,-0.5 L 1.5,0.15 C 0.7,-0.05 0,-0.05 0,0.15 Z"
               inkscape:connector-curvature="0"
               style="fill:#030303;fill-rule:evenodd" />
            <path
               id="shape22"
               transform="translate(83.1,24)"
               d="M 5.3,1.5 C 5.3,0.7 4.7,0 3.9,0 H 1.5 C 0.7,0 0,0.1 0,0.3 0,0.5 0.7,0.6 1.5,0.6 H 3.2 C 4,0.6 4.7,1.3 4.6,2.1 L 4.5,5 c 0,0.8 0.1,2.1 0.3,2.9 l 0.4,1.7 c 0.2,0.8 0.6,1.8 0.8,2.2 0.2,0.4 0.3,0.1 0.1,-0.7 L 5.4,7.8 C 5.2,7 5.1,5.7 5.1,4.8 Z"
               inkscape:connector-curvature="0"
               style="fill:#030303;fill-rule:evenodd" />
            <path
               id="shape23"
               transform="translate(84.6,9.5734014)"
               d="m 0,0.426599 c 0,0.2 0.7,0.3 1.5,0.3 h 2.3 c 0.8,0 1.8,-0.2 2.2,-0.4 0.4,-0.2 0,-0.4000004 -0.8,-0.3000004 L 1.5,0.126599 c -0.8,-0.1000004 -1.5,0.1 -1.5,0.3 z"
               inkscape:connector-curvature="0"
               style="fill:#030303;fill-rule:evenodd" />
            <path
               id="shape24"
               transform="translate(101.4,11.9)"
               d="M 0.7,1.5 C 0.7,0.7 0.5,0 0.3,0 0.1,0 0,0.7 0,1.5 V 4.3 C 0,5.1 0.2,5.4 0.4,5 0.6,4.6 0.8,3.5 0.7,2.7 Z"
               inkscape:connector-curvature="0"
               style="fill:#030303;fill-rule:evenodd" />
            <path
               id="shape25"
               transform="translate(100.4,23.4)"
               d="M 4.8,1.3 C 4.8,2.1 4.1,2.7 3.3,2.7 H 1.5 C 0.7,2.7 0,3.4 0,4.2 V 6 C 0,6.8 0.1,7.5 0.3,7.5 0.5,7.5 0.6,6.8 0.6,6 V 4.9 C 0.6,4.1 1.3,3.4 2.1,3.4 H 3.9 C 4.7,3.4 5.4,2.7 5.4,1.9 V 1.5 C 5.4,0.7 5.3,0 5.1,0 5,0 4.8,0.6 4.8,1.3 Z"
               inkscape:connector-curvature="0"
               style="fill:#030303;fill-rule:evenodd" />
            <path
               id="shape26"
               transform="translate(130.26077,26.102564)"
               d="m 0.93923,0.0974358 c -0.1,0.3000002 -0.2,1.2000042 -0.1,2.0000042 l 0.1,1 c 0.1,0.8 0.1,2.2 0,3 L 0.0392305,12.2974 c -0.1,0.8 0,1.5 0.1999995,1.5 0.2,0 0.5,-0.7 0.6,-1.5 l 0.8,-6.09996 c 0.1,-0.8 0.1,-2.2 0,-3 l -0.2,-2 c -0.2,-1.000004 -0.4,-1.400004 -0.5,-1.1000042 z"
               inkscape:connector-curvature="0"
               style="fill:#030303;fill-rule:evenodd" />
            <path
               id="shape27"
               transform="translate(112.1,35.873401)"
               d="m 0,0.326599 c 0,0.2 0.7,0.3 1.5,0.3 h 0.1 c 0.8,0 1.5,-0.1 1.5,-0.3 0,-0.2 -0.7,-0.3000004 -1.5,-0.3000004 H 1.5 C 0.7,-0.0734014 0,0.126599 0,0.326599 Z"
               inkscape:connector-curvature="0"
               style="fill:#030303;fill-rule:evenodd" />
            <path
               id="shape28"
               transform="translate(114.4004,10.6)"
               d="M 0.0996047,0.2 C 0.399605,0.4 1.3996,0.7 2.1996,0.8 l 5,0.8 c 0.8,0.3 1.4,0.5 1.5,0.3 0.1,-0.2 -0.5,-0.5 -1.3,-0.8 L 0.999605,0 c -0.8,0 -1.2,0 -0.9000003,0.2 z"
               inkscape:connector-curvature="0"
               style="fill:#030303;fill-rule:evenodd" />
            <path
               id="shape29"
               transform="translate(112,16.4)"
               d="M 2.4,0.3 C 2.7,0.1 2.3,0 1.5,0 0.7,0 0,0.2 0,0.4 0,0.6 0.4,0.7 0.9,0.7 1.4,0.7 2.1,0.5 2.4,0.3 Z"
               inkscape:connector-curvature="0"
               style="fill:#030303;fill-rule:evenodd" />
            <path
               id="shape30"
               transform="translate(138.9,0.9)"
               d="m 5,10.2 c 0,0.4 0.8,0.7 1.6,0.7 h 0.3 c 0.8,0 1.6,0 1.7,0.1 0.1,0 0.5,0.3 0.7,0.2 0.2,-0.1 0,-0.3 -0.2,-0.6 C 8.8,10.4 7.9,10.2 7.1,10.2 6.3,10.2 5.6,9.5 5.5,8.7 L 4.7,1.5 C 4.6,0.7 4.4,0 4.2,0 4,0 4,0.7 4.1,1.5 L 4.7,7.2 C 4.8,8 4.2,8.7 3.4,8.7 H 1.5 C 0.7,8.7 0,8.8 0,9 0,9.2 0.7,9.3 1.5,9.3 H 3.4 C 4.3,9.5 5,9.8 5,10.2 Z"
               inkscape:connector-curvature="0"
               style="fill:#030303;fill-rule:evenodd" />
            <path
               id="shape31"
               transform="translate(141.83634,21.2)"
               d="m 1.16366,4.7 c 0.1,0.8 -0.2,2 -0.6,2.7 -0.4,0.7 -0.7,1.9 -0.5000001,2 C 0.26366,9.5 0.56366,8.9 0.76366,8.1 c 0.2,-0.7 0.9,-1.4 1,-1.4 0.1,0 0.1,-0.7 0.1,-1.5 l -0.2,-3.1 c -0.1,-0.8 0.6,-1.5 1.4,-1.5 h 4.8 c 0.8,0 1.5,-0.1 1.5,-0.3 0,-0.2 -0.7,-0.3 -1.5,-0.3 h -5.5 c -0.8,0 -1.5,0.7 -1.4,1.5 z"
               inkscape:connector-curvature="0"
               style="fill:#030303;fill-rule:evenodd" />
            <path
               id="shape32"
               transform="translate(153.7,23.1)"
               d="M 0,0.3 C 0,0.5 0.7,0.6 1.5,0.6 H 4.6 C 5.4,0.6 6.4,0.5 6.7,0.3 7,0.1 6.6,0 5.8,0 H 1.5 C 0.7,0 0,0.1 0,0.3 Z"
               inkscape:connector-curvature="0"
               style="fill:#030303;fill-rule:evenodd" />
            <path
               id="shape33"
               transform="translate(156.58726,14.1)"
               d="M 0.0127417,0.3 C 0.212742,0.5 1.01274,0.6 1.81274,0.6 h 0.7 c 0.8,0 1.5,-0.1 1.5,-0.3 0,-0.2 -0.7,-0.3 -1.5,-0.3 h -1.4 C 0.412742,0 -0.0872583,0.2 0.0127417,0.3 Z"
               inkscape:connector-curvature="0"
               style="fill:#030303;fill-rule:evenodd" />
            <path
               id="shape34"
               transform="translate(139.2,36.46077)"
               d="m 0,0.23923 c 0,0.2 0.6,0.4 1.5,0.4 l 7.3,0.5 c 0.8,0.1 1.5,0 1.5,-0.2 0,-0.2 -0.6,-0.4 -1.5,-0.4 L 1.5,0.0392305 c -0.8,-0.1 -1.4,0 -1.5,0.1999995 z"
               inkscape:connector-curvature="0"
               style="fill:#030303;fill-rule:evenodd" />
            <path
               id="shape35"
               transform="translate(181.9,23.1)"
               d="M 1.5,0 C 0.7,0 0,0.2 0,0.3 0,0.5 0.7,0.6 1.5,0.6 l 8.9,1 C 11.2,1.7 11.9,1.6 12,1.4 12.1,1.2 11.4,1 10.6,1 Z"
               inkscape:connector-curvature="0"
               style="fill:#030303;fill-rule:evenodd" />
            <path
               id="shape36"
               transform="translate(211.76077,11.4)"
               d="m 0.23923,0 c -0.1999995,0.1 -0.2999995,0.8 -0.1999995,1.6 0,0 1.1999995,3.4 0.7999995,4.1 -0.4,0.7 -0.5,1.3 -0.3,1.4 0.2,0.1 0.6,-0.5 0.9,-1.2 l -0.9,-4.5 c 0,-0.8 -0.1,-1.4 -0.3,-1.4 z"
               inkscape:connector-curvature="0"
               style="fill:#030303;fill-rule:evenodd" />
            <path
               id="shape37"
               transform="translate(204.69098,1.0872583)"
               d="m 2.40902,2.41274 c -0.7,0 -1.4,-0.6 -1.600003,-1.3 -0.2,-0.699998 -0.5,-1.1999983 -0.7,-1.0999983 -0.2,0.1000003 -0.10000001,0.7000003 0.1,1.4999983 v 0.1 c 0.2,0.8 1.000003,1.4 1.700003,1.4 0.7,0 1.4,0.6 1.7,1.4 l 0.2,0.7 c 0.3,0.8 0.6,1.4 0.8,1.3 0.2,-0.1 0.1,-0.7 -0.2,-1.5 l -0.4,-1.1 c -0.1,-0.7 -0.9,-1.4 -1.6,-1.4 z"
               inkscape:connector-curvature="0"
               style="fill:#030303;fill-rule:evenodd" />
            <path
               id="shape38"
               transform="translate(230.8,21.9)"
               d="M 1.5,0 C 0.7,0 0,0.1 0,0.3 0,0.5 0.7,0.6 1.5,0.6 h 8.4 c 0.8,0 1.5,-0.1 1.5,-0.3 C 11.4,0.1 10.7,0 9.9,0 Z"
               inkscape:connector-curvature="0"
               style="fill:#030303;fill-rule:evenodd" />
            <path
               id="shape39"
               transform="translate(236.99098,1.2)"
               d="m 1.70902,5.8 c 0.2,0 0.1,-0.7 -0.1,-1.5 L 0.809017,1.4 c -0.2,-0.8 -0.5,-1.4 -0.7,-1.4 -0.2,0 -0.10000001,0.7 0.1,1.5 L 1.00902,4.4 c 0.3,0.8 0.6,1.4 0.7,1.4 z"
               inkscape:connector-curvature="0"
               style="fill:#030303;fill-rule:evenodd" />
          </g>
        </g>
        <path
           id="Shape17"
           transform="translate(33,7.3194939)"
           d="m 0,0.480506 h 2.7 c 0.8,0 0.8,-0.1 0,-0.3 L 2,0.0805061 c -0.8,-0.2000001 -1.4,0 -1.4,0.2999999 0,0 0,0 -0.6,0.1 z"
           inkscape:connector-curvature="0"
           style="fill:#030303;fill-rule:evenodd" />
        <path
           id="Shape18"
           transform="translate(13.1,35.473987)"
           d="m 4,0.426013 c -0.3,-0.3 -1.2,-0.5 -2,-0.4 l -1.4,0.2 c -0.8,0.1 -0.8,0.3 0,0.4 l 2.4,0.3 c 0.8,0 1.3,-0.1 1,-0.5 z"
           inkscape:connector-curvature="0"
           style="fill:#030303;fill-rule:evenodd" />
        <path
           id="Shape19"
           transform="translate(38.3,38.9)"
           d="M 5.7,0.5 C 5.5,0.2 4.7,0 3.8,0 L 0.6,0.3 c -0.8,0.1 -0.8,0.2 0,0.3 L 4.6,1 C 5.4,1 5.9,0.8 5.7,0.5 Z"
           inkscape:connector-curvature="0"
           style="fill:#030303;fill-rule:evenodd" />
        <path
           id="Shape20"
           transform="translate(76.489096,37.6)"
           d="M 0.0109039,0.5 C -0.0890961,0.2 0.510904,0 1.3109,0 h 0.6 c 0.8,0 0.8,0.2 0.1,0.5 l -0.4,0.1 C 0.810904,0.8 0.110904,0.8 0.0109039,0.5 Z"
           inkscape:connector-curvature="0"
           style="fill:#030303;fill-rule:evenodd" />
        <path
           id="Shape21"
           transform="translate(109.3,35.380619)"
           d="M 4.4,0.619381 C 4.3,0.219381 3.6,-0.0806185 2.8,0.0193815 L 0.6,0.319381 c -0.8,0.1 -0.8,0.3 0,0.4 L 3,1.11938 c 0.9,0.2 1.5,0 1.4,-0.499999 z"
           inkscape:connector-curvature="0"
           style="fill:#030303;fill-rule:evenodd" />
        <path
           id="Shape22"
           transform="translate(116.8,36.980619)"
           d="m 0,0.619381 c 0,-0.4 0.6,-0.6999995 1.3,-0.5999995 C 2.1,0.119381 2.1,0.419381 1.4,0.819381 0.7,1.21938 0.1,1.01938 0,0.619381 Z"
           inkscape:connector-curvature="0"
           style="fill:#030303;fill-rule:evenodd" />
        <path
           id="Shape23"
           transform="translate(92.86077,29.796889)"
           d="m 0.43923,0.503111 c -0.1,-0.6000003 -0.3,-0.7 -0.3999995,-0.1 -0.1,0.599999 0,1.699999 0.1999995,2.499999 l 0.1,0.3 c 0.2,0.8 0.4,0.8 0.3,0 0,-0.9 -0.1,-2.1 -0.2,-2.699999 z"
           inkscape:connector-curvature="0"
           style="fill:#030303;fill-rule:evenodd" />
        <path
           id="Shape24"
           transform="translate(105.4,30.712)"
           d="m 0.2,0.088 c -0.1,-0.3 -0.2,0.2 -0.2,1 v 0.1 c 0,0.8 0.1,1 0.3,0.4 0.1,-0.6 0.1,-1.3 -0.1,-1.5 z"
           inkscape:connector-curvature="0"
           style="fill:#030303;fill-rule:evenodd" />
        <path
           id="Shape25"
           transform="translate(80.2625,30.05)"
           d="m 0.3375,0.45 c 0,-0.6 -0.1,-0.6 -0.3,0 -0.1,0.6 0,1.8 0.3,2.6 l 0.1,0.3 c 0.3,0.8 0.4,0.8 0.2,-0.1 v -0.2 c -0.1,-0.8 -0.3,-2 -0.3,-2.6 z"
           inkscape:connector-curvature="0"
           style="fill:#030303;fill-rule:evenodd" />
        <path
           id="Shape26"
           transform="translate(60.0625,30.818861)"
           d="m 0.4375,0.181139 c -0.1,-0.3 -0.3,-0.2000002 -0.4,0.1 -0.1,0.3 0,0.900001 0.3,1.300001 0.3,0.4 0.5,0.4 0.4,-0.1 -0.1,-0.500001 -0.2,-1.100001 -0.3,-1.300001 z"
           inkscape:connector-curvature="0"
           style="fill:#030303;fill-rule:evenodd" />
        <path
           id="Shape27"
           transform="translate(45.737354,30.072312)"
           d="m 0.662646,0.427688 c -0.1,-0.6 -0.4,-0.6 -0.5999998,0.2 C -0.137354,1.32769 0.162646,2.32769 0.662646,2.92769 c 0.500004,0.5 0.800004,0.5 0.600004,-0.2 -0.1,-0.6 -0.400004,-1.6 -0.600004,-2.300002 z"
           inkscape:connector-curvature="0"
           style="fill:#030303;fill-rule:evenodd" />
        <path
           id="Shape28"
           transform="translate(21.055899,29.2625)"
           d="m 0.0441012,0.3375 c -0.2000002,-0.3 0.2999998,-0.4 1.0999988,-0.3 l 1.9,0.2 c 0.8,0.1 0.8,0.2 0,0.3 l -1.1,0.1 c -0.8,0.1 -1.699999,0 -1.8999988,-0.3 z"
           inkscape:connector-curvature="0"
           style="fill:#030303;fill-rule:evenodd" />
        <path
           id="Shape29"
           transform="translate(136.1,29.6)"
           d="m 0.2,0.6 c 0.1,-0.8 0.4,-0.8 0.5,0 v 0 C 0.9,1.4 0.8,2.7 0.6,3.5 L 0.4,4.2 C 0.2,5 0,5 0,4.2 V 3.6 C 0,2.7 0.1,1.4 0.2,0.6 Z"
           inkscape:connector-curvature="0"
           style="fill:#030303;fill-rule:evenodd" />
        <path
           id="Shape30"
           transform="translate(126.02233,12.823359)"
           d="m 1.87767,0.976641 c 0,0.299999 -0.6,0.199999 -1.2,-0.3 l -0.2,-0.1 c -0.7,-0.5000003 -0.6,-0.7 0.1,-0.5000003 0.7,0.1000003 1.3,0.5000003 1.3,0.9000003 z"
           inkscape:connector-curvature="0"
           style="fill:#030303;fill-rule:evenodd" />
        <path
           id="Shape31"
           transform="translate(166.48687,34.7)"
           d="m 2.61313,0.5 c 0.1,-0.3 -0.5,-0.5 -1.3,-0.5 H 0.613125 c -0.8,0 -0.8,0.2 -0.1,0.4 L 1.01313,0.5 c 0.8,0.4 1.5,0.3 1.6,0 z"
           inkscape:connector-curvature="0"
           style="fill:#030303;fill-rule:evenodd" />
        <path
           id="Shape32"
           transform="translate(163.5,30.6)"
           d="M 0.3,0.2 C 0.1,-0.2 0,0 0,0.8 0,1.6 0.2,1.9 0.4,1.6 0.6,1.2 0.5,0.6 0.3,0.2 Z"
           inkscape:connector-curvature="0"
           style="fill:#030303;fill-rule:evenodd" />
        <path
           id="Shape33"
           transform="translate(178.4,36.1)"
           d="M 4.2,0.5 C 4.3,0.2 3.7,0 2.9,0 L 0.6,0.2 c -0.8,0.1 -0.8,0.2 0,0.3 L 2.5,0.8 C 3.3,1 4.1,0.8 4.2,0.5 Z"
           inkscape:connector-curvature="0"
           style="fill:#030303;fill-rule:evenodd" />
        <path
           id="Shape34"
           transform="translate(179.43431,30.618861)"
           d="m 0.465685,0.281139 c -0.1,-0.3000002 -0.3,-0.4 -0.3999996,-0.1 -0.1,0.3 -0.1,1.000001 0.0999996,1.600001 0.1,0.6 0.3,0.6 0.4,0.1 0.1,-0.5 0.1,-1.200001 -0.1,-1.600001 z"
           inkscape:connector-curvature="0"
           style="fill:#030303;fill-rule:evenodd" />
        <path
           id="Shape35"
           transform="translate(217.21886,17.831887)"
           d="m 0.181139,1.86811 c -0.3,-0.1 -0.2000002,-0.7 0.1,-1.399997 0.3,-0.7 0.5,-0.6 0.5,0.2 0,0.799997 -0.4,1.299997 -0.6,1.199997 z"
           inkscape:connector-curvature="0"
           style="fill:#030303;fill-rule:evenodd" />
        <path
           id="Shape36"
           transform="translate(199.54953,35.373987)"
           d="m 0.0504729,0.426013 c 0.3000001,-0.3 1.0999971,-0.5 1.9999971,-0.4 l 3.4,0.6 c 0.8,0.1 0.8,0.2 0,0.3 l -4.3,0.099997 c -0.899997,0 -1.299997,-0.199997 -1.0999971,-0.599997 z"
           inkscape:connector-curvature="0"
           style="fill:#030303;fill-rule:evenodd" />
        <path
           id="Shape37"
           transform="translate(234.20151,35.23634)"
           d="m 0.0984928,0.56366 c 0.3000002,-0.4 1.1999972,-0.7 2.0999972,-0.5000001 l 3.1,0.6000001 c 0.8,0.2 0.8,0.3 0,0.4 l -4.2,0.2 c -0.899997,0.1 -1.299997,-0.2 -0.9999972,-0.7 z"
           inkscape:connector-curvature="0"
           style="fill:#030303;fill-rule:evenodd" />
        <path
           id="Shape38"
           transform="translate(235.68732,22.48084)"
           d="m 0.0126793,0.71916 c -0.1,-0.5 0.3999997,-0.7999998 1.2000007,-0.6999998 l 2.7,0.3999998 c 0.8,0.1 0.8,0.3 0,0.5 l -2.2,0.4 c -0.800001,0.1 -1.600001,-0.2 -1.7000007,-0.6 z"
           inkscape:connector-curvature="0"
           style="fill:#030303;fill-rule:evenodd" />
        <g
           id="Shape39"
           transform="translate(231,6)"
           style="opacity:0.5;fill:none">
          <path
             id="shape40"
             transform="translate(0.57340137,0.1)"
             d="m 0.526599,2.4 c -0.2,-0.2 -0.4,-1 -0.5000004,-1.8 -0.1,-0.8 0.1000004,-0.8 0.3000004,0 l 0.2,0.7 c 0.3,0.8 0.3,1.3 0,1.1 z"
             inkscape:connector-curvature="0"
             style="fill:#030303;fill-rule:evenodd" />
        </g>
        <path
           id="Shape40"
           transform="translate(196.14766,25.073987)"
           d="M 2.35234,1.12601 0.552338,0.426013 c -0.8,-0.3 -0.7,-0.5 0.1,-0.4 l 1.900002,0.2"
           inkscape:connector-curvature="0"
           style="fill:#030303;fill-rule:evenodd" />
        <g
           id="Shape41"
           transform="translate(121,30)"
           style="opacity:0.5;fill:none">
          <path
             id="shape41"
             transform="translate(0.612,0.2)"
             d="m 4.388,2.1 c 0.1,-0.4 0.1,-1 0,-1.4 C 4.288,0.3 3.488,0 2.588,0 h -0.5 c -0.8,0 -1.7,0.4 -2,0.8 -0.3,0.4 0.2,1 1,1.2 l 1.6,0.4 c 0.8,0.2 1.6,0.1 1.7,-0.3 z"
             inkscape:connector-curvature="0"
             style="fill:#030303;fill-rule:evenodd" />
        </g>
        <path
           id="Shape42"
           transform="translate(124.43665,30.2)"
           d="m 0.363353,1 c -0.5,-0.5 -0.5,-1 0.1,-1 0.5,0 1.199997,0.3 1.399997,0.6 0.3,0.3 0.1,1.2 -0.3,1.8 -0.4,0.7 -0.699997,0.9 -0.5,0.4 0,-0.4 -0.299997,-1.2 -0.699997,-1.8 z"
           inkscape:connector-curvature="0"
           style="fill:#030303;fill-rule:evenodd" />
        <path
           id="Shape43"
           transform="translate(76.989135,7.021539)"
           d="m 0.0108647,0.478461 c 0.1000003,-0.4 0.8000003,-0.6 1.5999953,-0.4 h 0.1 c 0.8,0.2 0.8,0.5 0,0.7 l -0.3,0.1 c -0.899995,0.199999 -1.4999953,0 -1.3999953,-0.4 z"
           inkscape:connector-curvature="0"
           style="fill:#030303;fill-rule:evenodd" />
        <path
           id="Shape44"
           transform="translate(40.3,12.873401)"
           d="m 2.5,0.326599 c -0.1,0.3 -0.9,0.3 -1.7,0.1 H 0.6 c -0.8,-0.2 -0.8,-0.4000004 0,-0.4000004 h 0.6 c 0.9,-0.1 1.4,0.1000004 1.3,0.3000004 z"
           inkscape:connector-curvature="0"
           style="fill:#030303;fill-rule:evenodd" />
        <path
           id="Shape45"
           transform="translate(12.5,24.519494)"
           d="m 2.8,0.380506 c 0.1,-0.2999999 -0.4,-0.5 -1.3,-0.2999999 L 0.6,0.280506 c -0.8,0.2 -0.8,0.4 0,0.5 l 0.4,0.1 c 0.9,0 1.7,-0.2 1.8,-0.5 z"
           inkscape:connector-curvature="0"
           style="fill:#030303;fill-rule:evenodd" />
        <path
           id="Shape46"
           transform="translate(17.25,32.811948)"
           d="m 0.15,3.18805 c -0.2,-0.3 -0.2,-1.1 0,-1.9 l 0.2,-0.699998 c 0.2,-0.8 0.4,-0.8 0.4,0.1 L 0.65,2.18805 c -0.1,0.8 -0.3,1.3 -0.5,1 z"
           inkscape:connector-curvature="0"
           style="fill:#29282a;fill-rule:evenodd" />
        <path
           id="Shape47"
           transform="translate(43.65,37.714286)"
           d="m 0.15,1.78571 c -0.2,-0.1 -0.2,-0.799996 0,-1.399996 0.2,-0.6 0.4,-0.5 0.4,0.3 0,0.799996 -0.2,1.299996 -0.4,1.099996 z"
           inkscape:connector-curvature="0"
           style="fill:#29282a;fill-rule:evenodd" />
        <path
           id="Shape48"
           transform="translate(67.6,23.351713)"
           d="m 0,0.248287 c 0,-0.5 0.2,-0.1999997 0.5,0.5 l 0.1,0.2 C 0.9,1.74829 0.9,2.04829 0.6,1.74829 0.3,1.44829 0,0.748287 0,0.248287 Z"
           inkscape:connector-curvature="0"
           style="fill:#29282a;fill-rule:evenodd" />
        <path
           id="Shape49"
           transform="translate(199.5,33.111948)"
           d="m 0.5,3.18805 c 0.3,-0.2 0.3,-1 0.1,-1.8 L 0.4,0.588052 c -0.2,-0.8 -0.4,-0.8 -0.4,0.1 V 2.08805 c 0,0.8 0.2,1.3 0.5,1.1 z"
           inkscape:connector-curvature="0"
           style="fill:#29282a;fill-rule:evenodd" />
        <path
           id="Shape50"
           transform="translate(233.17399,30.986875)"
           d="m 1.62601,5.01313 c 0.4,-0.2 0.4,-1 0.1,-1.7 L 0.426013,0.513125 c -0.3,-0.7 -0.5,-0.7 -0.4,0.1 l 0.6,3.300005 c 0.2,0.8 0.599997,1.3 0.999997,1.1 z"
           inkscape:connector-curvature="0"
           style="fill:#29282a;fill-rule:evenodd" />
        <path
           id="Shape51"
           transform="translate(233.85318,22.999222)"
           d="m 2.44682,0.100778 c -0.1,-0.3 -0.6,0.1 -0.9,0.8 L 0.246818,3.60078 c -0.4,0.7 -0.3000001,0.8 0.2,0.1 l 1.400002,-1.9 c 0.5,-0.6 0.7,-1.400002 0.6,-1.700002 z"
           inkscape:connector-curvature="0"
           style="fill:#29282a;fill-rule:evenodd" />
        <path
           id="Shape52"
           transform="translate(213.6,6.4)"
           d="M 0,2.2 0.1,0.6 c 0,-0.8 0.2,-0.8 0.4,0 L 1,2.4"
           inkscape:connector-curvature="0"
           style="fill:#030303;fill-rule:evenodd" />
        <path
           id="Shape53"
           transform="translate(11.92233,36.5)"
           d="m 0.47767,0.3 c -0.7,-0.2 -0.6,-0.3 0.1,-0.3 0.7,0.1 1.8,0.2 2.4,0.3 0.6,0.1 0.5,0.2 -0.1,0.3 -0.7,0 -1.8,-0.1 -2.4,-0.3 z"
           inkscape:connector-curvature="0"
           style="fill:#5a5558;fill-rule:evenodd" />
        <path
           id="Shape54"
           transform="translate(45.436647,32.706029)"
           d="m 0.463353,0.393971 c -0.6,-0.6 -0.6,-0.5 -0.1,0.2 l 0.4,0.499999 c 0.499997,0.7 1.199997,1.4 1.599997,1.7 0.4,0.3 0.4,0 -0.1,-0.5 -0.5,-0.5 -1.299997,-1.399999 -1.799997,-1.899999 z"
           inkscape:connector-curvature="0"
           style="fill:#5a5558;fill-rule:evenodd" />
        <path
           id="Shape55"
           transform="translate(59.295948,31.6)"
           d="m 0.104052,0 c -0.2000002,0 -0.10000016,0.5 0.2,1.1 0.3,0.6 0.4,0.6 0.3,0 -0.1,-0.6 -0.3,-1.1 -0.5,-1.1 z"
           inkscape:connector-curvature="0"
           style="fill:#5a5558;fill-rule:evenodd" />
        <path
           id="Shape56"
           transform="translate(78.551133,37.740192)"
           d="m 0.348867,0.559808 c -0.6,-0.1 -0.4000004,-0.2 0.4,-0.4 L 1.24887,0.0598076 c 0.8,-0.1 1.2,-0.1 0.8,0.2000004 -0.4,0.2 -1.200003,0.4 -1.700003,0.3 z"
           inkscape:connector-curvature="0"
           style="fill:#5a5558;fill-rule:evenodd" />
        <path
           id="Shape57"
           transform="translate(92.095948,32.517868)"
           d="m 0.304052,0.182132 c -0.30000016,-0.4 -0.4000002,-0.0999999 -0.2,0.5 0.1,0.699998 0.5,1.699998 0.8,2.299998 0.299998,0.6 0.399998,0.4 0.199998,-0.4 l -0.1,-0.3 c 0,-0.8 -0.399998,-1.799998 -0.699998,-2.099998 z"
           inkscape:connector-curvature="0"
           style="fill:#5a5558;fill-rule:evenodd" />
        <path
           id="Shape58"
           transform="translate(136.5,33.521225)"
           d="m 0.8,0.278775 c -0.1,-0.4 -0.3,-0.4 -0.5,0.2 C 0.1,1.07878 0,1.97878 0,2.67878 c 0,0.7 0.2,0.6 0.5,-0.2 v 0 c 0.3,-0.7 0.4,-1.700005 0.3,-2.200005 z"
           inkscape:connector-curvature="0"
           style="fill:#5a5558;fill-rule:evenodd" />
        <path
           id="Shape59"
           transform="translate(121.59922,30.621225)"
           d="m 0.800778,0.278775 c -0.1,-0.4 -0.5,-0.4 -0.7,0.2 -0.3,0.5 0.1,1.200005 0.8,1.600005 0.700002,0.4 1.000002,0.3 0.700002,-0.2 -0.3,-0.4 -0.700002,-1.100005 -0.800002,-1.600005 z"
           inkscape:connector-curvature="0"
           style="fill:#5a5558;fill-rule:evenodd" />
        <path
           id="Shape60"
           transform="translate(147.07204,38.2)"
           d="m 0.427956,0.3 c -0.7,-0.2 -0.5000004,-0.3 0.3,-0.3 0.800004,0 2.000004,0.2 2.700004,0.4 0.7,0.2 0.5,0.4 -0.3,0.3 -0.9,0 -2.1,-0.2 -2.700004,-0.4 z"
           inkscape:connector-curvature="0"
           style="fill:#5a5558;fill-rule:evenodd" />
        <path
           id="Shape61"
           transform="translate(163.76061,32.580306)"
           d="m 0.639388,0.119694 c -0.1,-0.3 -0.3,0 -0.5,0.5 -0.2000003,0.499996 -0.2000003,0.799996 0.1,0.499996 0.3,-0.299996 0.5,-0.799996 0.4,-0.999996 z"
           inkscape:connector-curvature="0"
           style="fill:#5a5558;fill-rule:evenodd" />
        <path
           id="Shape62"
           transform="translate(180.06061,31.980306)"
           d="m 0.639388,0.119694 c -0.1,-0.3 -0.3,0 -0.5,0.5 -0.2000003,0.599996 -0.2000003,0.799996 0.1,0.499996 0.3,-0.299996 0.5,-0.799996 0.4,-0.999996 z"
           inkscape:connector-curvature="0"
           style="fill:#5a5558;fill-rule:evenodd" />
        <path
           id="Shape63"
           transform="translate(177.54766,36.5625)"
           d="m 0.552338,0.4375 c -0.8,-0.1 -0.7,-0.3 0.1,-0.4 h 0.3 c 0.800002,-0.1 1.800002,0 2.200002,0.3 0.4,0.2 0.3,0.4 -0.3,0.4 -0.5,0 -1.5,-0.2 -2.300002,-0.3 z"
           inkscape:connector-curvature="0"
           style="fill:#5a5558;fill-rule:evenodd" />
        <path
           id="Shape64"
           transform="translate(201.575,36.36077)"
           d="m 0.525,0.53923 c -0.7,0.1 -0.7,-0.1 0,-0.3 0.7,-0.1999995 1.9,-0.2999995 2.7,-0.1999995 l 0.7,0.0999995 c 0.8,0.1 0.8,0.2 0,0.2 h -0.7 c -0.8,0.1 -2.1,0.2 -2.7,0.2 z"
           inkscape:connector-curvature="0"
           style="fill:#5a5558;fill-rule:evenodd" />
        <path
           id="Shape65"
           transform="translate(216.15905,19.85521)"
           d="M 1.34095,0.0447901 C 1.04095,0.14479 0.440954,0.84479 0.140954,1.54479 c -0.3,0.7 -0.1,0.7 0.4,0.1 l 0.499996,-0.7 c 0.6,-0.6 0.7,-1.1 0.3,-0.8999999 z"
           inkscape:connector-curvature="0"
           style="fill:#29282a;fill-rule:evenodd" />
        <path
           id="Shape66"
           transform="translate(243.07452,5.8476623)"
           d="m 0.725483,2.45234 c -0.3,0 -0.6,-0.7 -0.6999996,-1.500002 v -0.3 c -0.1,-0.8 0.0999996,-0.9 0.4999996,-0.1 l 0.2,0.500002 c 0.299997,0.8 0.299997,1.4 0,1.4 z"
           inkscape:connector-curvature="0"
           style="fill:#030303;fill-rule:evenodd" />
        <path
           id="Shape67"
           transform="translate(144,10.680619)"
           d="m 0,0.619381 c 0,-0.4 0.6,-0.6999995 1.4,-0.5999995 h 0.2 c 0.8,0 0.9,0.2999995 0.1,0.5999995 l -0.3,0.1 C 0.7,1.11938 0,1.01938 0,0.619381 Z"
           inkscape:connector-curvature="0"
           style="fill:#030303;fill-rule:evenodd" />
        <path
           id="Shape68"
           transform="translate(106.5625,12.687321)"
           d="m 0.3375,0.0126793 c -0.3,-0.1 -0.4,0.3999997 -0.3,1.2000007 v 0.3 c 0.1,0.8 0.3,0.9 0.5,0.1 0.1,-0.700001 0,-1.500001 -0.2,-1.6000007 z"
           inkscape:connector-curvature="0"
           style="fill:#030303;fill-rule:evenodd" />
        <path
           id="Shape69"
           transform="translate(73.589096,22.5)"
           d="M 0.0109039,0.5 C -0.0890961,0.2 0.510904,0 1.3109,0 h 2.6 c 0.8,0 0.8,0.1 0,0.3 l -2.3,0.5 C 0.910904,0.9 0.110904,0.8 0.0109039,0.5 Z"
           inkscape:connector-curvature="0"
           style="fill:#030303;fill-rule:evenodd" />
        <path
           id="Shape70"
           transform="translate(12.3,28.4)"
           d="M 2.4,0.4 C 2.4,0.2 1.8,0 1,0 H 0.6 c -0.8,0 -0.8,0.2 0,0.4 L 0.9,0.5 C 1.6,0.6 2.3,0.6 2.4,0.4 Z"
           inkscape:connector-curvature="0"
           style="fill:#030303;fill-rule:evenodd" />
        <path
           id="Shape71"
           transform="translate(3.061237,31.2)"
           d="m 1.23876,0 c -0.799997,0 -1.399997,0.1 -1.199997,0.3 0.1,0.1 0.9,0.3 1.799997,0.3 h 5.2 c 0.8,0 1.6,-0.1 1.8,-0.3 0.2,-0.2 -0.4,-0.3 -1.2,-0.3 z"
           inkscape:connector-curvature="0"
           style="fill:#e0dbd6;fill-rule:evenodd" />
        <path
           id="Shape72"
           transform="translate(28.061237,31.2)"
           d="m 1.23876,0 c -0.799997,0 -1.399997,0.1 -1.199997,0.3 0.1,0.1 0.9,0.3 1.799997,0.3 h 5.2 c 0.8,0 1.6,-0.1 1.8,-0.3 0.1,-0.2 -0.4,-0.3 -1.2,-0.3 z"
           inkscape:connector-curvature="0"
           style="fill:#e0dbd6;fill-rule:evenodd" />
        <path
           id="Shape73"
           transform="translate(41.990447,31.1)"
           d="m 1.40955,0 c -0.799997,0 -1.4999967,0.2 -1.39999668,0.3 0,0.1 0.69999968,0.3 1.49999668,0.3 0.8,0 1.4,-0.1 1.5,-0.3 0,-0.2 -0.6,-0.3 -1.4,-0.3 z"
           inkscape:connector-curvature="0"
           style="fill:#e0dbd6;fill-rule:evenodd" />
        <path
           id="Shape74"
           transform="translate(16.890447,18.8)"
           d="m 1.40955,0 c -0.799997,0 -1.4999967,0.2 -1.39999668,0.3 0,0.1 0.69999968,0.3 1.49999668,0.3 0.8,0 1.4,-0.1 1.5,-0.3 0,-0.2 -0.6,-0.3 -1.4,-0.3 z"
           inkscape:connector-curvature="0"
           style="fill:#e0dbd6;fill-rule:evenodd" />
        <path
           id="Shape75"
           transform="translate(27.290447,18.8)"
           d="m 1.40955,0 c -0.799997,0 -1.4999967,0.2 -1.39999668,0.3 0,0.1 0.69999968,0.3 1.49999668,0.3 0.8,0 1.4,-0.1 1.5,-0.3 0.1,-0.2 -0.6,-0.3 -1.4,-0.3 z"
           inkscape:connector-curvature="0"
           style="fill:#e0dbd6;fill-rule:evenodd" />
        <path
           id="Shape76"
           transform="translate(6.5890961,20.5)"
           d="m 1.3109,0 c -0.799996,0 -1.3999961,0.2 -1.2999961,0.3 0,0.1 0.6000001,0.3 1.2999961,0.3 0.7,0 1.3,-0.1 1.3,-0.3 0,-0.2 -0.6,-0.3 -1.3,-0.3 z"
           inkscape:connector-curvature="0"
           style="fill:#e0dbd6;fill-rule:evenodd" />
        <path
           id="Shape77"
           transform="translate(19.089096,24.7)"
           d="M 1.3109,0 C 0.510904,0 -0.0890961,0.1 0.0109039,0.3 0.110904,0.4 0.810904,0.6 1.7109,0.6 h 2.2 c 0.8,0 1.6,-0.1 1.7,-0.3 0.1,-0.2 -0.5,-0.3 -1.3,-0.3 z"
           inkscape:connector-curvature="0"
           style="fill:#e0dbd6;fill-rule:evenodd" />
        <path
           id="Shape78"
           transform="translate(13.389096,6.7)"
           d="M 1.3109,0 C 0.510904,0 -0.0890961,0.1 0.0109039,0.3 0.110904,0.5 0.810904,0.6 1.7109,0.6 h 2.2 c 0.8,0 1.6,-0.1 1.7,-0.3 0.1,-0.2 -0.5,-0.3 -1.3,-0.3 z"
           inkscape:connector-curvature="0"
           style="fill:#e0dbd6;fill-rule:evenodd" />
        <path
           id="Shape79"
           transform="translate(56.390447,31.1)"
           d="M 1.40955,0 C 0.609553,0 -0.0904467,0.2 0.00955332,0.3 0.109553,0.4 0.709553,0.6 1.50955,0.6 c 0.8,0 1.4,-0.1 1.5,-0.3 0,-0.2 -0.6,-0.3 -1.4,-0.3 z"
           inkscape:connector-curvature="0"
           style="fill:#e0dbd6;fill-rule:evenodd" />
        <path
           id="Shape80"
           transform="translate(81.089096,31.1)"
           d="m 1.3109,0 c -0.799996,0 -1.3999961,0.2 -1.2999961,0.3 0,0.1 0.6000001,0.3 1.2999961,0.3 0.7,0 1.3,-0.1 1.3,-0.3 0.1,-0.2 -0.5,-0.3 -1.3,-0.3 z"
           inkscape:connector-curvature="0"
           style="fill:#e0dbd6;fill-rule:evenodd" />
        <path
           id="Shape81"
           transform="translate(61,31.1)"
           d="M 1.4,0 C 0.6,0 0,0.1 0,0.3 0.1,0.4 0.8,0.6 1.6,0.6 H 3.2 C 4,0.6 4.8,0.5 4.8,0.3 4.9,0.1 4.3,0 3.4,0 Z"
           inkscape:connector-curvature="0"
           style="fill:#e0dbd6;fill-rule:evenodd" />
        <path
           id="Shape82"
           transform="translate(74.189096,31.1)"
           d="M 1.3109,0 C 0.510904,0 -0.0890961,0.1 0.0109039,0.3 0.110904,0.4 0.810904,0.6 1.7109,0.6 h 2.1 c 0.8,0 1.6,-0.1 1.7,-0.3 0.1,-0.2 -0.5,-0.3 -1.3,-0.3 z"
           inkscape:connector-curvature="0"
           style="fill:#e0dbd6;fill-rule:evenodd" />
        <path
           id="Shape83"
           transform="translate(88.5,31.1)"
           d="M 1.4,0 C 0.6,0 0,0.2 0,0.3 0,0.4 0.8,0.6 1.6,0.6 H 2.3 C 3.1,0.6 3.9,0.5 3.9,0.3 4,0.1 3.3,0 2.5,0 Z"
           inkscape:connector-curvature="0"
           style="fill:#e0dbd6;fill-rule:evenodd" />
        <path
           id="Shape84"
           transform="translate(117.1,31.1)"
           d="M 1.4,0 C 0.6,0 0,0.2 0,0.3 0.1,0.4 0.8,0.6 1.6,0.6 H 2.3 C 3.1,0.6 3.9,0.5 3.9,0.3 4,0.1 3.3,0 2.5,0 Z"
           inkscape:connector-curvature="0"
           style="fill:#e0dbd6;fill-rule:evenodd" />
        <path
           id="Shape85"
           transform="translate(137.5,31.1)"
           d="M 1.4,0 C 0.6,0 0,0.2 0,0.3 0.1,0.4 0.8,0.6 1.6,0.6 H 1.9 C 2.7,0.6 3.4,0.5 3.5,0.3 3.6,0.1 2.9,0 2.1,0 Z"
           inkscape:connector-curvature="0"
           style="fill:#e0dbd6;fill-rule:evenodd" />
        <path
           id="Shape86"
           transform="translate(147.6891,31.1)"
           d="M 1.3109,0 C 0.510904,0 -0.0890961,0.1 0.0109039,0.3 0.110904,0.4 0.910904,0.6 1.7109,0.6 h 4.1 c 0.8,0 1.6,-0.1 1.7,-0.3 0.1,-0.2 -0.4,-0.3 -1.3,-0.3 z"
           inkscape:connector-curvature="0"
           style="fill:#e0dbd6;fill-rule:evenodd" />
        <path
           id="Shape87"
           transform="translate(160.09045,31.1)"
           d="M 1.40955,0 C 0.609553,0 -0.0904467,0.2 0.00955332,0.3 0.109553,0.4 0.809553,0.6 1.60955,0.6 c 0.8,0 1.5,-0.1 1.6,-0.3 0.1,-0.2 -0.6,-0.3 -1.4,-0.3 z"
           inkscape:connector-curvature="0"
           style="fill:#e0dbd6;fill-rule:evenodd" />
        <path
           id="Shape88"
           transform="translate(164.6891,31.1)"
           d="M 1.3109,0 C 0.510904,0 -0.0890961,0.1 0.0109039,0.3 0.110904,0.5 0.810904,0.6 1.6109,0.6 h 1.6 c 0.8,0 1.6,-0.1 1.6,-0.3 0.1,-0.2 -0.5,-0.3 -1.3,-0.3 z"
           inkscape:connector-curvature="0"
           style="fill:#e0dbd6;fill-rule:evenodd" />
        <path
           id="Shape89"
           transform="translate(174.6,31.1)"
           d="M 1.4,0 C 0.6,0 0,0.2 0,0.3 0,0.4 0.8,0.6 1.6,0.6 H 2.5 C 3.3,0.6 4.1,0.5 4.1,0.3 4.2,0.1 3.6,0 2.7,0 Z"
           inkscape:connector-curvature="0"
           style="fill:#e0dbd6;fill-rule:evenodd" />
        <path
           id="Shape90"
           transform="translate(180.6,31.1)"
           d="M 1.4,0 C 0.6,0 0,0.2 0,0.3 0.1,0.4 0.8,0.6 1.6,0.6 H 1.8 C 2.6,0.6 3.3,0.5 3.4,0.3 3.5,0.1 2.8,0 2,0 Z"
           inkscape:connector-curvature="0"
           style="fill:#e0dbd6;fill-rule:evenodd" />
        <path
           id="Shape91"
           transform="translate(189.16124,31.1)"
           d="m 1.23876,0 c -0.799997,0 -1.399997,0.1 -1.199997,0.3 0.2,0.2 0.999997,0.3 1.799997,0.3 h 5.8 c 0.8,0 1.6,-0.1 1.8,-0.3 0.2,-0.2 -0.4,-0.3 -1.2,-0.3 z"
           inkscape:connector-curvature="0"
           style="fill:#e0dbd6;fill-rule:evenodd" />
        <path
           id="Shape92"
           transform="translate(203.36124,31.1)"
           d="m 1.23876,0 c -0.799997,0 -1.399997,0.1 -1.199997,0.3 0.2,0.1 0.999997,0.3 1.799997,0.3 h 5.8 c 0.8,0 1.6,-0.1 1.8,-0.3 0.2,-0.2 -0.4,-0.3 -1.2,-0.3 z"
           inkscape:connector-curvature="0"
           style="fill:#e0dbd6;fill-rule:evenodd" />
        <path
           id="Shape93"
           transform="translate(239.46124,31.1)"
           d="m 1.23876,0 c -0.799997,0 -1.399997,0.1 -1.199997,0.3 0.2,0.1 0.999997,0.3 1.799997,0.3 h 5.8 c 0.8,0 1.6,-0.1 1.8,-0.3 0.2,-0.2 -0.4,-0.3 -1.2,-0.3 z"
           inkscape:connector-curvature="0"
           style="fill:#e0dbd6;fill-rule:evenodd" />
        <path
           id="Shape94"
           transform="translate(226.0891,7.1)"
           d="M 1.3109,0 C 0.510904,0 -0.0890961,0.1 0.0109039,0.3 0.110904,0.4 0.810904,0.6 1.7109,0.6 h 2 c 0.8,0 1.6,-0.1 1.7,-0.3 0.1,-0.2 -0.5,-0.3 -1.3,-0.3 z"
           inkscape:connector-curvature="0"
           style="fill:#e0dbd6;fill-rule:evenodd" />
        <path
           id="Shape95"
           transform="translate(214.8891,7.1)"
           d="M 1.3109,0 C 0.510904,0 -0.0890961,0.1 0.0109039,0.3 0.110904,0.5 0.910904,0.6 1.7109,0.6 h 2.7 c 0.8,0 1.6,-0.1 1.7,-0.3 0.1,-0.2 -0.5,-0.3 -1.3,-0.3 z"
           inkscape:connector-curvature="0"
           style="fill:#e0dbd6;fill-rule:evenodd" />
        <path
           id="Shape96"
           transform="translate(209.1,7.1)"
           d="M 1.4,0 C 0.6,0 0,0.2 0,0.3 0.1,0.4 0.8,0.6 1.6,0.6 h 1 C 3.4,0.6 4.2,0.5 4.2,0.3 4.3,0.1 3.7,0 2.8,0 Z"
           inkscape:connector-curvature="0"
           style="fill:#e0dbd6;fill-rule:evenodd" />
        <path
           id="Shape97"
           transform="translate(211.0891,18.8)"
           d="M 1.3109,0 C 0.510904,0 -0.0890961,0.1 0.0109039,0.3 0.110904,0.4 0.810904,0.6 1.7109,0.6 h 2.1 c 0.8,0 1.6,-0.1 1.7,-0.3 0.1,-0.2 -0.5,-0.3 -1.3,-0.3 z"
           inkscape:connector-curvature="0"
           style="fill:#e0dbd6;fill-rule:evenodd" />
        <path
           id="Shape98"
           transform="translate(176.2,6.3)"
           d="M 1.4,0 C 0.6,0 0,0.2 0,0.3 0,0.4 0.8,0.6 1.6,0.6 h 1 C 3.4,0.6 4.2,0.5 4.2,0.3 4.3,0.1 3.7,0 2.8,0 Z"
           inkscape:connector-curvature="0"
           style="fill:#e0dbd6;fill-rule:evenodd" />
        <path
           id="Shape99"
           transform="translate(184.3,6.3)"
           d="M 1.4,0 C 0.6,0 0,0.2 0,0.3 0.1,0.4 0.8,0.6 1.6,0.6 h 1 C 3.4,0.6 4.2,0.5 4.2,0.3 4.3,0.1 3.7,0 2.8,0 Z"
           inkscape:connector-curvature="0"
           style="fill:#e0dbd6;fill-rule:evenodd" />
        <path
           id="Shape100"
           transform="translate(179.38719,11.4625)"
           d="m 1.01281,0.0375 c -0.600004,0 -1.1000044,0.2 -1.0000044,0.3 0,0.1 0.5000004,0.3 1.0000044,0.3 0.5,0 1,-0.1 1,-0.3 0,-0.3 -0.4,-0.4 -1,-0.3 z"
           inkscape:connector-curvature="0"
           style="fill:#e0dbd6;fill-rule:evenodd" />
        <path
           id="Shape101"
           transform="translate(182,9.8)"
           d="M 1.3,0 C 0.5,0 0,0.2 0,0.3 0,0.4 0.6,0.6 1.3,0.6 2,0.6 2.6,0.5 2.6,0.3 2.6,0.1 2,0 1.3,0 Z"
           inkscape:connector-curvature="0"
           style="fill:#e0dbd6;fill-rule:evenodd" />
        <path
           id="Shape102"
           transform="translate(146,10.1)"
           d="M 1.3,0 C 0.5,0 0,0.2 0,0.3 0,0.4 0.6,0.6 1.3,0.6 2,0.6 2.6,0.5 2.6,0.3 2.6,0.1 2.1,0 1.3,0 Z"
           inkscape:connector-curvature="0"
           style="fill:#e0dbd6;fill-rule:evenodd" />
        <path
           id="Shape103"
           transform="translate(155.09045,18.5)"
           d="M 1.40955,0 C 0.609553,0 -0.0904467,0.2 0.00955332,0.3 0.109553,0.4 0.809553,0.6 1.60955,0.6 c 0.8,0 1.5,-0.1 1.6,-0.3 0.1,-0.2 -0.6,-0.3 -1.4,-0.3 z"
           inkscape:connector-curvature="0"
           style="fill:#e0dbd6;fill-rule:evenodd" />
        <path
           id="Shape104"
           transform="translate(148.7891,21.5)"
           d="M 1.3109,0 C 0.510904,0 -0.0890961,0.1 0.0109039,0.3 0.110904,0.4 0.810904,0.6 1.6109,0.6 h 1.6 c 0.8,0 1.6,-0.1 1.6,-0.3 0.1,-0.2 -0.5,-0.3 -1.3,-0.3 z"
           inkscape:connector-curvature="0"
           style="fill:#e0dbd6;fill-rule:evenodd" />
        <path
           id="Shape105"
           transform="translate(238.4891,22.2)"
           d="M 1.3109,0 C 0.510904,0 -0.0890961,0.1 0.0109039,0.3 0.110904,0.4 0.810904,0.6 1.6109,0.6 h 1.6 c 0.8,0 1.6,-0.1 1.6,-0.3 0.1,-0.2 -0.5,-0.3 -1.3,-0.3 z"
           inkscape:connector-curvature="0"
           style="fill:#e0dbd6;fill-rule:evenodd" />
        <path
           id="Shape106"
           transform="translate(89.2,24.5)"
           d="M 1.4,0 C 0.6,0 0,0.2 0,0.3 0,0.4 0.8,0.6 1.6,0.6 H 2 C 2.8,0.6 3.5,0.5 3.6,0.3 3.7,0.1 3,0 2.2,0 Z"
           inkscape:connector-curvature="0"
           style="fill:#e0dbd6;fill-rule:evenodd" />
        <path
           id="Shape107"
           transform="translate(76.6,22)"
           d="M 1.4,0 C 0.6,0 0,0.2 0,0.3 0.1,0.4 0.8,0.6 1.6,0.6 H 2 C 2.8,0.6 3.5,0.5 3.6,0.3 3.7,0.1 3.1,0 2.2,0 Z"
           inkscape:connector-curvature="0"
           style="fill:#e0dbd6;fill-rule:evenodd" />
        <path
           id="Shape108"
           transform="translate(58.5,21.8)"
           d="M 1.4,0 C 0.6,0 0,0.2 0,0.3 0.1,0.4 0.8,0.6 1.6,0.6 H 2 C 2.8,0.6 3.5,0.5 3.6,0.3 3.7,0.1 3,0 2.2,0 Z"
           inkscape:connector-curvature="0"
           style="fill:#e0dbd6;fill-rule:evenodd" />
        <path
           id="Shape109"
           transform="translate(31.289096,12.1)"
           d="M 1.3109,0 C 0.510904,0 -0.0890961,0.1 0.0109039,0.3 0.110904,0.5 0.810904,0.6 1.6109,0.6 h 1.7 c 0.8,0 1.6,-0.1 1.6,-0.3 0.1,-0.2 -0.5,-0.3 -1.3,-0.3 z"
           inkscape:connector-curvature="0"
           style="fill:#e0dbd6;fill-rule:evenodd" />
        <path
           id="Shape110"
           transform="translate(82.490447,7.4585786)"
           d="m 1.40955,0.0414214 c -0.799997,-0.1 -1.4999967,0 -1.39999668,0.0999996 0.09999968,0.1 0.69999968,0.4 1.49999668,0.5 l 0.4,0.1 c 0.8,0.1 1.6,0.1 1.6,-0.1 0.1,-0.2 -0.5,-0.4 -1.3,-0.5 z"
           inkscape:connector-curvature="0"
           style="fill:#e0dbd6;fill-rule:evenodd" />
        <path
           id="Shape111"
           transform="translate(160.2,23.5)"
           d="M 1.4,0 C 0.6,0 0,0.2 0,0.3 0.1,0.4 0.8,0.6 1.6,0.6 H 2 C 2.8,0.6 3.5,0.5 3.6,0.3 3.7,0.1 3,0 2.2,0 Z"
           inkscape:connector-curvature="0"
           style="fill:#e0dbd6;fill-rule:evenodd" />
        <path
           id="Shape112"
           transform="translate(183,21.3)"
           d="M 1.4,0 C 0.6,0 0,0.2 0,0.3 0.1,0.4 0.8,0.6 1.6,0.6 H 2 C 2.8,0.6 3.5,0.5 3.6,0.3 3.7,0.1 3,0 2.2,0 Z"
           inkscape:connector-curvature="0"
           style="fill:#e0dbd6;fill-rule:evenodd" />
        <path
           id="Shape113"
           transform="translate(128.38732,6.9)"
           d="M 1.21268,0 C 0.412679,0 -0.0873207,0.1 0.0126793,0.3 0.212679,0.4 1.01268,0.6 1.81268,0.6 h 7.7 c 0.80002,0 1.70002,-0.1 1.80002,-0.3 0.1,-0.2 -0.3,-0.3 -1.2,-0.3 z"
           inkscape:connector-curvature="0"
           style="fill:#e0dbd6;fill-rule:evenodd" />
        <path
           id="Shape114"
           transform="translate(101.2559,7)"
           d="M 1.1441,0 C 0.344101,0 -0.155899,0.1 0.0441012,0.3 0.244101,0.4 1.0441,0.6 1.9441,0.6 h 8.1 c 0.8,0 1.7,-0.1 1.9,-0.3 0.2,-0.2 -0.3,-0.3 -1.1,-0.3 z"
           inkscape:connector-curvature="0"
           style="fill:#e0dbd6;fill-rule:evenodd" />
        <path
           id="Shape115"
           transform="translate(99.689096,18.5)"
           d="M 1.3109,0 C 0.510904,0 -0.0890961,0.1 0.0109039,0.3 0.110904,0.4 0.910904,0.6 1.7109,0.6 h 3 c 0.8,0 1.6,-0.1 1.7,-0.3 0.1,-0.2 -0.5,-0.3 -1.3,-0.3 z"
           inkscape:connector-curvature="0"
           style="fill:#e0dbd6;fill-rule:evenodd" />
        <path
           id="Shape116"
           transform="translate(106.9891,18.5)"
           d="M 1.3109,0 C 0.510904,0 -0.0890961,0.1 0.0109039,0.3 0.110904,0.4 0.910904,0.6 1.7109,0.6 h 2.7 c 0.8,0 1.6,-0.1 1.7,-0.3 0.1,-0.2 -0.5,-0.3 -1.3,-0.3 z"
           inkscape:connector-curvature="0"
           style="fill:#e0dbd6;fill-rule:evenodd" />
        <path
           id="Shape117"
           transform="translate(122.49045,29.6)"
           d="M 1.40955,0 C 0.609553,0 -0.0904467,0.2 0.00955332,0.3 0.109553,0.4 0.709553,0.6 1.50955,0.6 c 0.8,0 1.4,-0.1 1.5,-0.3 0,-0.2 -0.7,-0.3 -1.6,-0.3 z"
           inkscape:connector-curvature="0"
           style="fill:#e0dbd6;fill-rule:evenodd" />
        <path
           id="Shape118"
           transform="translate(120.4,11.058579)"
           d="m 1.4,0.0414214 c -0.8,-0.1 -1.4,0 -1.4,0.0999996 0.1,0.2 0.8,0.4 1.6,0.5 l 1.1,0.1 c 0.8,0.1 1.6,0.1 1.7,-0.1 0.1,-0.2 -0.5,-0.4 -1.3,-0.5 z"
           inkscape:connector-curvature="0"
           style="fill:#e0dbd6;fill-rule:evenodd" />
        <path
           id="Shape119"
           transform="translate(188.5,23.558579)"
           d="m 1.4,0.0414214 c -0.8,-0.1 -1.4,0 -1.4,0.0999996 0.1,0.2 0.8,0.4 1.6,0.5 l 1.1,0.1 c 0.8,0.1 1.6,0.1 1.7,-0.1 0.1,-0.2 -0.5,-0.4 -1.3,-0.5 z"
           inkscape:connector-curvature="0"
           style="fill:#e0dbd6;fill-rule:evenodd" />
        <path
           id="Shape120"
           transform="translate(186.3,11.4625)"
           d="m 1,0.0375 c -0.6,0 -1,0.2 -1,0.3 0,0.1 0.5,0.3 1,0.3 0.5,0 0.9,-0.1 1,-0.3 0,-0.3 -0.5,-0.4 -1,-0.3 z"
           inkscape:connector-curvature="0"
           style="fill:#e0dbd6;fill-rule:evenodd" />
        <path
           id="Shape121"
           transform="translate(218.2891,18.8)"
           d="M 1.3109,0 C 0.510904,0 -0.0890961,0.1 0.0109039,0.3 0.110904,0.4 0.910904,0.6 1.7109,0.6 h 2.7 c 0.8,0 1.6,-0.1 1.7,-0.3 0.1,-0.2 -0.5,-0.3 -1.3,-0.3 z"
           inkscape:connector-curvature="0"
           style="fill:#e0dbd6;fill-rule:evenodd" />
        <path
           id="Shape122"
           transform="translate(244.3,7.1)"
           d="M 1.4,0 C 0.6,0 0,0.2 0,0.3 0.1,0.4 0.8,0.6 1.6,0.6 H 2.7 C 3.5,0.6 4.3,0.5 4.3,0.3 4.4,0.1 3.8,0 2.9,0 Z"
           inkscape:connector-curvature="0"
           style="fill:#e0dbd6;fill-rule:evenodd" />
        <path
           id="Shape123"
           transform="translate(127.26124,31.1)"
           d="m 1.23876,0 c -0.799997,0 -1.399997,0.1 -1.199997,0.3 0.1,0.1 0.9,0.3 1.699997,0.3 h 4.8 c 0.8,0 1.6,-0.1 1.7,-0.3 0.1,-0.2 -0.4,-0.3 -1.2,-0.3 z"
           inkscape:connector-curvature="0"
           style="fill:#e0dbd6;fill-rule:evenodd" />
        <path
           id="Shape124"
           transform="translate(93.987321,31.1)"
           d="M 1.21268,0 C 0.412679,0 -0.0873207,0.1 0.0126793,0.3 0.112679,0.5 1.01268,0.6 1.81268,0.6 h 7.3 c 0.8,0 1.60002,-0.1 1.80002,-0.3 0.2,-0.2 -0.3,-0.3 -1.20002,-0.3 z"
           inkscape:connector-curvature="0"
           style="fill:#e0dbd6;fill-rule:evenodd" />
        <path
           id="Shape125"
           transform="translate(106.2891,31.1)"
           d="M 1.3109,0 C 0.510904,0 -0.0890961,0.1 0.0109039,0.3 0.110904,0.4 0.910904,0.6 1.7109,0.6 h 2.6 c 0.8,0 1.6,-0.1 1.7,-0.3 0.1,-0.2 -0.5,-0.3 -1.3,-0.3 z"
           inkscape:connector-curvature="0"
           style="fill:#e0dbd6;fill-rule:evenodd" />
        <path
           id="Shape126"
           transform="translate(47.4,31.2)"
           d="M 1.4,0 C 0.6,0 0,0.2 0,0.3 0.1,0.4 0.8,0.6 1.6,0.6 h 1 C 3.4,0.6 4.2,0.5 4.2,0.3 4.3,0.1 3.7,0 2.8,0 Z"
           inkscape:connector-curvature="0"
           style="fill:#e0dbd6;fill-rule:evenodd" />
      </g>
    </g>
  </g>
  <path
     id="shape42"
     d="m 10.87535,9.0389002 -0.56652,-1.4125215 0.28524,-3.240605 h 12.02904 l 0.29844,3.224885 -0.57984,1.4282415 H 10.87535"
     inkscape:connector-curvature="0"
     style="fill:#161413;stroke-width:0.12" />
  <path
     id="shape43"
     d="M 22.45703,4.5652937 H 10.74635 l -0.2616,3.050405 0.52032,1.2685214 5.49984,-0.0032 h 5.70288 l 0.5352,-1.2676814 -0.28596,-3.048005"
     inkscape:connector-curvature="0"
     style="fill:#7f736f;stroke-width:0.12" />
  <path
     id="shape44"
     d="m 10.48583,7.5742987 -0.006,0.04008 0.52596,1.2799214 h 11.21208 l 0.52584,-1.2799214 -0.006,-0.04008 h -12.252"
     inkscape:connector-curvature="0"
     style="fill:#232526;stroke-width:0.12" />
  <path
     id="shape45"
     d="m 12.57779,8.9352201 -0.0088,-0.04008 h 0.20796 c 0.0022,0.01308 0.0036,0.02316 0.0041,0.03 l -0.20328,0.01008"
     inkscape:connector-curvature="0"
     style="fill:#100f0d;stroke-width:0.12" />
  <path
     id="shape46"
     d="m 12.48479,7.5751387 h -0.20784 l -0.002,-0.0098 c 0,0 0.12,-0.300001 0.3168,-0.560041 0,0 0.054,-0.054 0.07632,-0.054 0.01476,0 0.0156,0.024 -0.02304,0.10392 -0.09672,0.20004 -0.21336,0.310081 -0.17016,0.480001 l 0.01,0.03996"
     inkscape:connector-curvature="0"
     style="fill:#3e3b3c;stroke-width:0.12" />
  <path
     id="shape47"
     d="M 12.77699,8.8951401 H 12.56903 L 12.27695,7.5751387 h 0.20784 c 0.0588,0.24204 0.26016,1.1202023 0.2922,1.3200014"
     inkscape:connector-curvature="0"
     style="fill:#111717;stroke-width:0.12" />
  <path
     id="shape48"
     d="m 11.89367,6.1396967 c -0.372,0 -1.0332,-0.1056 -1.2696,-0.145441 l 0.0084,-0.13248 c 0.53844,0.06984 1.2714,0.167641 1.2714,0.167641 l 0.02916,0.10992 c -0.01312,2.84e-4 -0.02624,4.45e-4 -0.03936,4.8e-4"
     inkscape:connector-curvature="0"
     style="fill:#3e3b3c;stroke-width:0.12" />
  <path
     id="shape49"
     d="m 11.56931,8.9571802 c -0.11976,0 -0.3018,-0.02196 -0.3018,-0.02196 0,0 -0.02664,-0.01236 -0.0636,-0.04008 h 0.41364 c 0.10128,0.04848 0.04572,0.06204 -0.04836,0.06204"
     inkscape:connector-curvature="0"
     style="fill:#100f0d;stroke-width:0.12" />
  <path
     id="shape50"
     d="m 11.61743,8.8951401 h -0.41364 c -0.08328,-0.06192 -0.21936,-0.2008791 -0.2262,-0.4500004 -0.0038,-0.13932 0.0058,-0.1872 0.02304,-0.1872 0.0276,0 0.07416,0.11988 0.11688,0.1872 0.07008,0.11004 0.27,0.3400813 0.49992,0.4500004"
     inkscape:connector-curvature="0"
     style="fill:#111717;stroke-width:0.12" />
  <path
     id="shape51"
     d="m 13.816431,7.5751387 h -0.2544 c 0.0074,-0.02052 0.01764,-0.04056 0.03072,-0.06 0.104789,-0.153753 0.214855,-0.303843 0.33,-0.450001 0.17112,0.08556 -0.05076,0.304201 -0.10632,0.510001"
     inkscape:connector-curvature="0"
     style="fill:#3e3b3c;stroke-width:0.12" />
  <path
     id="shape52"
     d="m 13.88219,8.1680597 c -0.0066,-1.01e-4 -0.01312,-0.0011 -0.01944,-0.0029 -0.1014,-0.0276 -0.39024,-0.344761 -0.30072,-0.590041 h 0.2544 c -0.01584,0.0588 -0.01812,0.11676 0.0062,0.17004 0.10296,0.22464 0.1446,0.422881 0.05952,0.422881"
     inkscape:connector-curvature="0"
     style="fill:#111717;stroke-width:0.12" />
  <path
     id="shape53"
     d="m 20.133471,8.9401402 h -0.16008 l -0.0132,-0.05004 h 0.14244 c 0.01032,0.0204 0.02076,0.03732 0.03084,0.05004"
     inkscape:connector-curvature="0"
     style="fill:#100f0d;stroke-width:0.12" />
  <path
     id="shape54"
     d="m 19.961031,7.5700987 h -0.24072 c 0.01596,-0.072 0.057,-0.15612 0.14316,-0.270001 0.04608,-0.06072 0.07752,-0.08616 0.09792,-0.08616 0.05436,0 0.0318,0.179041 -3.6e-4,0.356161"
     inkscape:connector-curvature="0"
     style="fill:#3e3b3c;stroke-width:0.12" />
  <path
     id="shape55"
     d="m 20.102631,8.8901001 h -0.14244 c -0.0432,-0.1661991 -0.17988,-0.7016404 -0.1968,-0.9199214 -0.01296,-0.17028 -0.0732,-0.2634 -0.04308,-0.40008 h 0.24072 c -0.0216,0.11928 -0.04776,0.23772 -0.0576,0.3 -0.02736,0.174001 0.0876,0.8000413 0.1992,1.0200014"
     inkscape:connector-curvature="0"
     style="fill:#111717;stroke-width:0.12" />
  <path
     id="shape56"
     d="M 22.537311,7.5700987 H 22.39643 c -0.0156,-0.06264 -0.01248,-0.13332 0.03552,-0.19992 0.0234,-0.0324 0.0426,-0.04632 0.05796,-0.04632 0.04536,0 0.0576,0.12084 0.0474,0.24624"
     inkscape:connector-curvature="0"
     style="fill:#3e3b3c;stroke-width:0.12" />
  <path
     id="shape57"
     d="m 22.501911,7.7601787 c 0,0 -0.07932,-0.0834 -0.1056,-0.19008 h 0.141 c -0.0056,0.06828 -0.018,0.138 -0.0354,0.19008"
     inkscape:connector-curvature="0"
     style="fill:#111717;stroke-width:0.12" />
  <path
     id="shape58"
     d="m 22.078071,8.9573002 -0.24,-0.0098 c 0.01956,-0.0086 0.0372,-0.02616 0.05304,-0.05004 h 0.19908 c -0.007,0.03768 -0.01212,0.06 -0.01212,0.06"
     inkscape:connector-curvature="0"
     style="fill:#100f0d;stroke-width:0.12" />
  <path
     id="shape59"
     d="m 22.090191,8.8973001 h -0.19908 c 0.11004,-0.1655991 0.1374,-0.6405604 0.1812,-0.6405604 0.0079,0 0.01632,0.01548 0.0258,0.05076 0.05328,0.19776 0.01404,0.4706413 -0.0079,0.5899204"
     inkscape:connector-curvature="0"
     style="fill:#111717;stroke-width:0.12" />
  <path
     id="shape60"
     d="m 22.616271,5.6056957 h -0.063 l -0.012,-0.13968 0.06348,-1.2e-4 0.01152,0.13992"
     inkscape:connector-curvature="0"
     style="fill:#100f0d;stroke-width:0.12" />
  <path
     id="shape61"
     d="m 22.415751,5.5816957 h -1.26888 c 0,0 0.03408,-0.13428 1.25304,-0.13992 l 0.01584,0.1398"
     inkscape:connector-curvature="0"
     style="fill:#3e3b3c;stroke-width:0.12" />
  <path
     id="shape62"
     d="m 13.674591,4.5652937 h -0.13476 c 0.0026,-0.06804 0.0132,-0.11988 0.0132,-0.11988 l 0.19152,-0.0096 c -0.05316,0.0055 -0.06924,0.0636 -0.06996,0.1296"
     inkscape:connector-curvature="0"
     style="fill:#100f0d;stroke-width:0.12" />
  <path
     id="shape63"
     d="m 13.623111,4.8454947 c -0.075,-0.0636 -0.08676,-0.187081 -0.08328,-0.280201 h 0.13476 c -9.6e-4,0.0924 0.02856,0.200161 0.02856,0.200161 l -0.08004,0.08004"
     inkscape:connector-curvature="0"
     style="fill:#3e3b3c;stroke-width:0.12" />
  <path
     id="shape64"
     d="m 11.07275,4.4358137 c 0.0028,-2.44e-4 0.0056,-3.64e-4 0.0084,-3.6e-4 l -0.0084,3.6e-4 m 4.76088,0.12948 h -0.11856 l 0.01404,-0.11988 0.13992,-0.01 -0.0354,0.12984"
     inkscape:connector-curvature="0"
     style="fill:#100f0d;stroke-width:0.12" />
  <path
     id="shape65"
     d="m 15.68903,4.7853747 0.02604,-0.220081 h 0.11856 l -0.0546,0.200041 -0.09,0.02004 m -4.3134,2.789764 h -0.129 c 0.0054,-0.06094 0.0167,-0.1212 0.0336,-0.18 0.09348,-0.339961 0.34356,-0.399961 0.34356,-0.399961 0.03516,-0.0041 0.0624,-0.006 0.08304,-0.006 0.18036,0 -0.1536,0.1452 -0.21648,0.22596 -0.05412,0.0696 -0.12408,0.212401 -0.11472,0.360001"
     inkscape:connector-curvature="0"
     style="fill:#3e3b3c;stroke-width:0.12" />
  <path
     id="shape66"
     d="m 11.42639,8.0017387 c -0.018,0 -0.03996,-0.01836 -0.05964,-0.05652 -0.0528,-0.1032 -0.135119,-0.17484 -0.120119,-0.37008 h 0.128999 c 0.0028,0.04356 0.01236,0.08748 0.0312,0.13008 0.08484,0.19068 0.06312,0.2964 0.01956,0.2964"
     inkscape:connector-curvature="0"
     style="fill:#111717;stroke-width:0.12" />
  <path
     id="shape67"
     d="m 13.752712,7.3900987 c 0,0 -0.3,0.19512 -0.06,0.45 0,0 -0.045,-0.10488 0.075,-0.21 0.12,-0.10488 0.12,-0.404881 -0.015,-0.24 z m 6.00072,0.28008 c 0,0 0,-0.315 0.165,-0.345001 0.165,-0.03 -0.07992,0.106921 -0.045,0.360001 0.06,0.435001 -0.03,0.735001 -0.12,-0.015 z m 2.67348,-0.165 c 0,0 0.06,0.345 0.075,-0.015 0.015,-0.360001 -0.075,0.015 -0.075,0.015 z m -10.008721,-0.12996 c 0,0 -0.225,0.18 -0.0252,0.48 0.200041,0.300001 0.0402,-0.255 0.0252,-0.48 z m -1.121281,0.01488 c 0,0 -0.06516,0.645121 0.03,0.40512 0.09504,-0.24 0.06504,-0.600001 -0.03,-0.405 z m 11.258402,-1.778403 c 0,0 -1.40724,-0.15 -0.01356,-0.15"
     inkscape:connector-curvature="0"
     style="fill:#000200;stroke-width:0.12" />
  <path
     id="shape68"
     d="m 14.240628,7.5542597 c -0.27912,6e-4 -0.43104,0.0168 -0.3378,0.03624 0.0936,0.0192 0.39816,0.03504 0.67692,0.03504 h 4.28688 c 0.27876,0 0.58368,-0.01896 0.6768,-0.04212 0.09336,-0.02316 -0.05856,-0.04152 -0.33768,-0.04092 z m 5.9598,-0.007 c -0.1428,8.4e-4 -0.22884,0.01728 -0.19116,0.0366 0.03744,0.0192 0.18516,0.03504 0.32772,0.03504 h 1.6164 c 0.1428,0 0.29064,-0.01896 0.32796,-0.04212 0.03756,-0.02316 -0.04848,-0.0414 -0.19128,-0.04056 z m 0.92832,-2.100244 c -0.1266,0.0067 -0.21792,0.02736 -0.20316,0.04596 0.01524,0.01848 0.13068,0.02976 0.25704,0.02472 l 0.49404,-0.01944 c 0.12648,-0.0048 0.2454,-0.02856 0.26472,-0.05232 0.0192,-0.02376 -0.06888,-0.0378 -0.19536,-0.0312 z m -9.523798,2.094524 c -0.13656,0.0022 -0.23616,0.01956 -0.22164,0.03888 0.0144,0.0192 0.13788,0.03504 0.27408,0.03504 h 0.32484 c 0.13632,0 0.25968,-0.01896 0.27432,-0.042 0.0144,-0.02328 -0.08544,-0.04044 -0.22164,-0.0384 z"
     inkscape:connector-curvature="0"
     style="fill:#a89e96;stroke-width:0.12" />
  <path
     id="shape69"
     d="m 11.10167,8.4505397 c -0.0996,0.0019 -0.17604,0.01908 -0.1704,0.0384 0.0056,0.0192 0.0912,0.03504 0.18984,0.03504 h 0.32832 c 0.09864,0 0.19584,-0.01896 0.21564,-0.04212 0.0198,-0.02316 -0.04536,-0.04056 -0.1446,-0.03876 z"
     inkscape:connector-curvature="0"
     style="fill:#494247;stroke-width:0.12" />
  <path
     id="shape70"
     d="m 11.14487,5.8555357 c -0.10644,-0.01416 -0.18156,-0.0084 -0.16716,0.01272 0.0144,0.02112 0.11328,0.05136 0.2196,0.06708 l 0.42048,0.06228 c 0.106324,0.0156 0.204844,0.01164 0.218764,-0.0091 0.01404,-0.02064 -0.06168,-0.0492 -0.168124,-0.06336 z m -0.44268,1.685519 c -0.1308,0.0024 -0.228,0.02004 -0.21576,0.03936 0.012,0.0192 0.12924,0.03504 0.25992,0.03504 h 0.216 c 0.1308,0 0.2478,-0.01896 0.25992,-0.042 0.01224,-0.02328 -0.08496,-0.0402 -0.21576,-0.03792 z"
     inkscape:connector-curvature="0"
     style="fill:#a89e96;stroke-width:0.12" />
  <path
     id="shape71"
     d="m 11.17391,7.7589787 c 0,0 0.15108,0.491521 0.1548,0.210721 0.0036,-0.280921 -0.16404,-0.362881 -0.1548,-0.210721 z m 1.05444,-0.551521 c 0,0 0.145684,0.788162 0.179164,0.337921 0.0336,-0.450481 -0.175564,-0.582001 -0.179164,-0.337921 z m 1.226164,0.469681 c 0,0 0.26724,0.635275 0.2076,0.281281 -0.05976,-0.354121 -0.2514,-0.474121 -0.2076,-0.281281 z m 9.05688,-0.08256 c 0,0 -0.07968,0.531721 0.0504,0.2406 0.13032,-0.29136 0.01164,-0.40548 -0.0504,-0.2406 z m -2.78856,-0.0042 c 0,0 0.10332,0.588241 -0.04944,0.26388 -0.15264,-0.3246 -0.02388,-0.44724 0.04944,-0.26388 z"
     inkscape:connector-curvature="0"
     style="fill:#494247;stroke-width:0.12" />
  <path
     id="shape72"
     d="m 12.742191,7.5446587 c -0.154321,0.0022 -0.267001,0.01956 -0.250561,0.03888 0.01632,0.0192 0.155761,0.03504 0.309841,0.03504 h 0.3672 c 0.15408,0 0.29364,-0.01896 0.31008,-0.04212 0.01632,-0.02316 -0.0966,-0.04032 -0.25056,-0.0384 z"
     inkscape:connector-curvature="0"
     style="fill:#a89e96;stroke-width:0.12" />
  <path
     id="shape73"
     d="m 17.514711,7.0226577 h -0.68844 v -1.816803 l 0.162,-0.34956 0.81672,1.039201 1.22544,0.791402 -0.1602,0.35496 h -0.56184 l -0.6024,-0.602401 -0.19632,0.01428 0.15924,0.21636 z"
     inkscape:connector-curvature="0"
     style="fill:#000000;stroke-width:0.12" />
  <path
     id="shape74"
     d="m 17.675271,6.6727367 h -0.68856 v -1.816802 h 0.66924 v 0.669361 h 0.26784 l 0.51636,-0.650161 h 0.6216 v 0.37284 l -0.42564,0.425521 v 0.25332 l 0.39456,0.394561 v 0.370681 h -0.56184 l -0.6024,-0.602401 -0.1962,0.01416 z"
     inkscape:connector-curvature="0"
     style="fill:#e2dbd5;stroke-width:0.12" />
  <path
     id="shape75"
     d="m 15.933711,7.0191777 h -0.6708 l -0.15936,-0.372481 0.39876,-0.0672 0.04008,-0.927601 h -0.204 l -0.159,-0.371641 1.0884,-0.4392 0.1608,0.3708 0.0036,0.430321 h -0.20376 l -0.0029,0.918001 0.06408,-0.37044 0.16044,0.37044 0.0042,0.468601 z"
     inkscape:connector-curvature="0"
     style="fill:#000000;stroke-width:0.12" />
  <path
     id="shape76"
     d="m 15.774351,6.6483767 h -0.6708 l 0.02424,-0.43968 h 0.21504 l 0.04008,-0.927602 h -0.204 l 0.02436,-0.44004 h 1.06596 l 0.0036,0.43032 h -0.20388 l -0.0029,0.918002 h 0.2244 l 0.0043,0.4686 z"
     inkscape:connector-curvature="0"
     style="fill:#e2dbd5;stroke-width:0.12" />
  <path
     id="shape77"
     d="m 20.134071,7.0363377 h -0.6708 l -0.01932,-0.439681 0.19248,-0.34764 0.02256,0.34764 -0.05172,-0.927601 h -0.204 l -0.0294,-0.456481 0.20016,-0.33264 0.813,1.277642 0.45516,0.537121 -0.18684,0.35136 z"
     inkscape:connector-curvature="0"
     style="fill:#000000;stroke-width:0.12" />
  <path
     id="shape78"
     d="m 20.322831,6.6872577 h -0.6708 l -0.0192,-0.439801 h 0.21492 l -0.0516,-0.927602 h -0.204 l -0.01944,-0.43992 h 1.06608 l 0.0462,0.43032 h -0.20376 l 0.08796,0.918002 h 0.2244 l 0.05064,0.468601 z"
     inkscape:connector-curvature="0"
     style="fill:#e2dbd5;stroke-width:0.12" />
  <path
     id="shape79"
     d="m 14.71259,7.0010577 h -0.68928 l -0.2592,-0.350881 0.06168,-0.1086 h -0.22968 l -0.26196,0.459601 h -0.68928 l -0.25884,-0.350041 0.81732,-1.835642 0.25968,0.34752 -0.06444,0.919082 0.55656,-0.07764 0.6264,-1.190522 0.26004,0.349201 z"
     inkscape:connector-curvature="0"
     style="fill:#000000;stroke-width:0.12" />
  <path
     id="shape80"
     d="m 14.45411,6.6520967 h -0.68928 l -0.19752,-0.45936 h -0.22968 l -0.26196,0.45948 h -0.68928 l 0.12888,-1.838042 h 0.68928 l -0.06444,0.918961 0.24588,-0.22968 h 0.22968 l 0.2136,0.22968 0.06444,-0.918961 h 0.6894 z"
     inkscape:connector-curvature="0"
     style="fill:#e2dbd5;stroke-width:0.12" />
  <path
     id="shape81"
     d="m 10.56299,5.9934157 h 0.06156 l 0.0084,-0.13224 -0.0618,-1.2e-4 -0.0082,0.13236"
     inkscape:connector-curvature="0"
     style="fill:#100f0d;stroke-width:0.12" />
</svg>
